<svg width="20" height="20" viewBox="0 0 20 20" fill="none" xmlns="http://www.w3.org/2000/svg">
<path d="M6.24642 1.76826C6.20962 1.70395 6.18733 1.63237 6.18111 1.55854C6.1749 1.48471 6.18491 1.41041 6.21045 1.34086C6.23598 1.2713 6.27642 1.20818 6.32893 1.1559C6.38144 1.10363 6.44475 1.06348 6.51442 1.03826L6.66442 0.984259C8.81984 0.20707 11.179 0.20707 13.3344 0.984259L13.4844 1.03826C13.5541 1.06348 13.6174 1.10363 13.6699 1.1559C13.7224 1.20818 13.7629 1.2713 13.7884 1.34086C13.8139 1.41041 13.8239 1.48471 13.8177 1.55854C13.8115 1.63237 13.7892 1.70395 13.7524 1.76826L12.1524 4.55626C11.4811 4.89472 10.7381 5.06619 9.98632 5.05609C9.23459 5.04599 8.49639 4.85463 7.83442 4.49826L6.24642 1.76826ZM4.39842 18.5843C6.14242 19.3843 7.88442 19.6003 9.99842 19.6003C12.1124 19.6003 13.8564 19.3843 15.5984 18.5843C16.2703 18.2718 16.8386 17.7736 17.2363 17.1484C17.634 16.5232 17.8443 15.7972 17.8424 15.0563C17.8424 9.81226 15.2564 7.14426 13.3044 5.73826C12.32 6.34068 11.1885 6.65973 10.0344 6.66026C9.90242 6.66026 9.77042 6.66026 9.63442 6.64626C9.57446 8.0261 9.85397 9.39959 10.4484 10.6463C10.541 10.8372 10.5539 11.0571 10.4843 11.2576C10.4147 11.4581 10.2684 11.6227 10.0774 11.7153C9.88647 11.8078 9.66656 11.8207 9.46609 11.7512C9.26561 11.6816 9.10098 11.5352 9.00842 11.3443C8.55877 10.4152 8.26164 9.41979 8.12842 8.39626C7.84835 8.71081 7.59293 9.04647 7.36442 9.40026C7.25091 9.57955 7.07083 9.7064 6.86379 9.75291C6.65675 9.79941 6.43971 9.76177 6.26042 9.64826C6.08114 9.53475 5.95429 9.35466 5.90778 9.14762C5.86127 8.94058 5.89891 8.72355 6.01242 8.54426C6.54809 7.70411 7.20445 6.94733 7.96042 6.29826C7.52775 6.14399 7.11328 5.94279 6.72442 5.69826C4.76842 7.09826 2.14442 9.76626 2.15242 15.0403C2.14767 15.7841 2.35685 16.5137 2.75506 17.142C3.15327 17.7704 3.72371 18.271 4.39842 18.5843V18.5843Z" fill="#606060"/>
</svg>
