<svg width="29" height="29" viewBox="0 0 29 29" fill="none" xmlns="http://www.w3.org/2000/svg">
    <rect x="12.0571" y="0.520508" width="4.7047" height="4.6525" rx="1" fill="#EEEEEE"/>
    <rect x="23.8184" y="12.1519" width="4.7047" height="4.6525" rx="1" fill="#EEEEEE"/>
    <rect x="0.294922" y="12.1519" width="4.7047" height="4.6525" rx="1" fill="#EEEEEE"/>
    <rect x="12.0571" y="23.7832" width="4.7047" height="4.6525" rx="1" fill="#EEEEEE"/>
    <rect width="4.67867" height="4.67867" rx="1" transform="matrix(0.71104 0.703151 -0.71104 0.703151 22.7256 2.96362)" fill="#EEEEEE"/>
    <rect width="4.67867" height="4.67867" rx="1" transform="matrix(0.71104 0.703151 -0.71104 0.703151 22.7256 19.4128)" fill="#EEEEEE"/>
    <rect width="4.67867" height="4.67867" rx="1" transform="matrix(0.71104 0.703151 -0.71104 0.703151 6.09229 2.96362)" fill="#EEEEEE"/>
    <rect width="4.67867" height="4.67867" rx="1" transform="matrix(0.71104 0.703151 -0.71104 0.703151 6.09229 19.4128)" fill="#EEEEEE"/>
    <path d="M24.67 14.4784C24.67 20.058 20.0915 24.6096 14.4082 24.6096C8.725 24.6096 4.14648 20.058 4.14648 14.4784C4.14648 8.89881 8.725 4.34717 14.4082 4.34717C20.0915 4.34717 24.67 8.89881 24.67 14.4784Z" stroke="#EEEEEE" stroke-width="3"/>
</svg>
