<svg width="36" height="25" viewBox="0 0 36 25" fill="none" xmlns="http://www.w3.org/2000/svg">
    <path d="M34.3624 13.1118C33.8934 12.648 33.3445 12.2914 32.7465 12.0543C33.3841 11.5382 33.7927 10.7534 33.7927 9.87525C33.7927 8.3218 32.5153 7.06055 30.9478 7.06055C29.3804 7.06055 28.1029 8.3218 28.1029 9.87525C28.1029 10.7534 28.5115 11.5382 29.1492 12.0543C28.5512 12.2914 28.0023 12.648 27.5332 13.1118L27.6211 13.2007L27.5332 13.1118C26.6211 14.0139 26.1182 15.2141 26.1182 16.4905V16.6155H26.2432H26.9783H27.1033V16.4905C27.1033 14.3963 28.8267 12.69 30.9478 12.69C33.0689 12.69 34.7924 14.3963 34.7924 16.4905V16.6155H34.9174H35.6525H35.7775V16.4905C35.7775 15.2141 35.2746 14.0139 34.3624 13.1118L34.2778 13.1974L34.3624 13.1118ZM30.9478 11.713C29.9211 11.713 29.088 10.8872 29.088 9.87525C29.088 8.86332 29.9211 8.03749 30.9478 8.03749C31.9745 8.03749 32.8076 8.86332 32.8076 9.87525C32.8076 10.8872 31.9745 11.713 30.9478 11.713Z" fill="#EEEEEE" stroke="#EEEEEE" stroke-width="0.25"/>
    <path d="M8.48645 13.1118C8.0174 12.648 7.46853 12.2914 6.8705 12.0543C7.50813 11.5382 7.91673 10.7534 7.91673 9.87525C7.91673 8.3218 6.6393 7.06055 5.07185 7.06055C3.50439 7.06055 2.22697 8.3218 2.22697 9.87525C2.22697 10.7534 2.63556 11.5382 3.27321 12.0543C2.67518 12.2914 2.12631 12.648 1.65726 13.1118L1.74516 13.2007L1.65726 13.1118C0.745077 14.0139 0.242188 15.2141 0.242188 16.4905V16.6155H0.367188H1.10229H1.22729V16.4905C1.22729 14.3963 2.95074 12.69 5.07185 12.69C7.19295 12.69 8.9164 14.3963 8.9164 16.4905V16.6155H9.0414H9.77651H9.90151V16.4905C9.90151 15.2141 9.39862 14.0139 8.48645 13.1118L8.40183 13.1974L8.48645 13.1118ZM5.07185 11.713C4.04516 11.713 3.21207 10.8872 3.21207 9.87525C3.21207 8.86332 4.04516 8.03749 5.07185 8.03749C6.09853 8.03749 6.93163 8.86332 6.93163 9.87525C6.93163 10.8872 6.09853 11.713 5.07185 11.713Z" fill="#EEEEEE" stroke="#EEEEEE" stroke-width="0.25"/>
    <path d="M26.0223 14.801L26.0222 14.801C25.1021 13.8911 24.0504 13.1567 22.9095 12.615C24.1253 11.3891 24.8795 9.70777 24.8795 7.85212C24.8795 4.09307 21.7905 1.05029 18.0098 1.05029C14.2291 1.05029 11.1401 4.09307 11.1401 7.85212C11.1401 9.70777 11.8943 11.3891 13.1101 12.6151C11.9692 13.1567 10.9176 13.8911 9.99739 14.801L9.99738 14.801C7.85649 16.9182 6.67432 19.7386 6.67432 22.7364V23.4864H7.42432H9.0783H9.8283V22.7364C9.8283 18.2882 13.4912 14.654 18.0098 14.654C22.5284 14.654 26.1913 18.2882 26.1913 22.7364V23.4864H26.9413H28.5953H29.3453V22.7364C29.3453 19.7386 28.1631 16.9182 26.0223 14.801ZM18.0098 11.5183C15.9537 11.5183 14.294 9.86516 14.294 7.85212C14.294 5.83908 15.9537 4.18592 18.0098 4.18592C20.0659 4.18592 21.7256 5.83908 21.7256 7.85212C21.7256 9.86516 20.0659 11.5183 18.0098 11.5183Z" fill="#EEEEEE" stroke="#222222" stroke-width="1.5"/>
    <path d="M25.6707 15.1566C24.6052 14.103 23.3563 13.2961 21.9952 12.7643C23.4469 11.6093 24.3795 9.8372 24.3795 7.85212C24.3795 4.37446 21.5196 1.55029 18.0098 1.55029C14.5 1.55029 11.6401 4.37446 11.6401 7.85212C11.6401 9.8372 12.5727 11.6093 14.0244 12.7643C12.6633 13.2961 11.4144 14.103 10.349 15.1566L10.5166 15.3261L10.349 15.1566C8.30244 17.1804 7.17432 19.873 7.17432 22.7364V22.9864H7.42432H9.0783H9.3283V22.7364C9.3283 18.0068 13.2204 14.154 18.0098 14.154C22.7992 14.154 26.6913 18.0068 26.6913 22.7364V22.9864H26.9413H28.5953H28.8453V22.7364C28.8453 19.873 27.7172 17.1804 25.6707 15.1566L25.5014 15.3278L25.6707 15.1566ZM18.0098 12.0183C15.6828 12.0183 13.794 10.1466 13.794 7.85212C13.794 5.55769 15.6828 3.68592 18.0098 3.68592C20.3368 3.68592 22.2256 5.55769 22.2256 7.85212C22.2256 10.1466 20.3368 12.0183 18.0098 12.0183Z" fill="#EEEEEE" stroke="#EEEEEE" stroke-width="0.5"/>
</svg>
