<svg width="30" height="27" viewBox="0 0 30 27" fill="none" xmlns="http://www.w3.org/2000/svg">
<path d="M25.9633 20.482C25.1081 20.482 24.3083 20.0613 23.8239 19.3566L22.5533 17.5086C21.0567 20.192 18.2116 21.9245 15.0011 21.9245C10.5212 21.9245 6.82528 18.5026 6.38955 14.1355H7.21208C7.53344 14.1355 7.82842 13.9574 7.97802 13.6729C8.12762 13.3885 8.10728 13.0445 7.92522 12.7797L6.66361 10.9447L4.75192 8.16396C4.59054 7.92916 4.3238 7.78882 4.03878 7.78882C4.00315 7.78882 3.96782 7.79099 3.93289 7.79526C3.89797 7.79954 3.86357 7.80599 3.82976 7.81437C3.74526 7.8354 3.66463 7.86898 3.59062 7.91381C3.48702 7.97651 3.3962 8.06118 3.32559 8.1639L0.152282 12.7797C-0.0297809 13.0445 -0.0501143 13.3885 0.0994858 13.6729C0.249086 13.9572 0.544067 14.1355 0.865476 14.1355H1.75851C1.96442 17.3543 3.31645 20.3522 5.6177 22.6535C8.1241 25.1599 11.4565 26.5402 15.0011 26.5402C18.5457 26.5402 21.8781 25.1599 24.3845 22.6535C25.0508 21.9872 25.6408 21.2562 26.1474 20.4749C26.0863 20.4792 26.025 20.482 25.9633 20.482Z" fill="#EEEEEE"/>
<path d="M15.6652 12.4047H14.3465C14.0965 12.4047 13.8931 12.2014 13.8931 11.9514V11.292C13.8931 11.0421 14.0965 10.8387 14.3465 10.8387H15.6652C15.9152 10.8387 16.1185 11.0421 16.1185 11.292C16.1185 11.77 16.506 12.1574 16.9839 12.1574C17.4619 12.1574 17.8494 11.7699 17.8494 11.292C17.8494 10.1572 16.9793 9.22201 15.8712 9.11783V8.65449C15.8712 8.17651 15.4837 7.78906 15.0057 7.78906C14.5278 7.78906 14.1403 8.17657 14.1403 8.65449V9.11783C13.0322 9.22201 12.1621 10.1572 12.1621 11.292V11.9514C12.1621 13.1558 13.1419 14.1356 14.3463 14.1356H15.6651C15.9151 14.1356 16.1184 14.3389 16.1184 14.5889V15.2483C16.1184 15.4982 15.915 15.7016 15.6651 15.7016H14.3463C14.0964 15.7016 13.893 15.4983 13.893 15.2484C13.893 14.7704 13.5055 14.383 13.0276 14.383C12.5497 14.383 12.1622 14.7705 12.1622 15.2484C12.1622 16.3832 13.0322 17.3184 14.1404 17.4225V17.8858C14.1404 18.3638 14.5279 18.7512 15.0058 18.7512C15.4838 18.7512 15.8712 18.3637 15.8712 17.8858V17.4225C16.9793 17.3183 17.8494 16.3831 17.8494 15.2483V14.5889C17.8494 13.3845 16.8696 12.4047 15.6652 12.4047Z" fill="#EEEEEE"/>
<path d="M29.8994 12.8673C29.7497 12.5828 29.4548 12.4047 29.1334 12.4047H28.2404C28.0345 9.18585 26.6824 6.18799 24.3812 3.88667C21.8748 1.38033 18.5424 0 14.9979 0C11.4533 0 8.12082 1.38033 5.61448 3.88673C4.94816 4.55305 4.35814 5.284 3.85156 6.06528C3.91256 6.06095 3.97386 6.05813 4.03556 6.05813C4.89079 6.05813 5.6906 6.47887 6.17502 7.18356L7.44554 9.03162C8.94219 6.34813 11.7873 4.61575 14.9978 4.61575C19.4777 4.61575 23.1736 8.03762 23.6093 12.4047H22.7868C22.4654 12.4047 22.1705 12.5828 22.0209 12.8673C21.8713 13.1517 21.8916 13.4957 22.0737 13.7605L23.3353 15.5956L25.247 18.3763C25.2873 18.435 25.3343 18.4878 25.3864 18.534C25.5429 18.6725 25.7464 18.7514 25.9602 18.7514C26.2451 18.7514 26.5119 18.6111 26.6733 18.3763L27.8192 16.7096L29.8466 13.7606C30.0287 13.4956 30.049 13.1516 29.8994 12.8673Z" fill="#EEEEEE"/>
</svg>
