<svg width="50" height="45" viewBox="0 0 50 45" fill="none" xmlns="http://www.w3.org/2000/svg">
    <path d="M20.9548 12.8033C20.3614 11.9024 19.4586 11.2499 18.417 10.9691C18.1138 10.8796 17.8038 10.8147 17.4902 10.775C17.1312 10.7313 16.544 10.6731 15.9035 10.6149C13.1473 10.3528 9.11016 9.9695 8.51817 8.67391C8.30648 8.20492 7.75476 7.99627 7.28578 8.20796C6.95036 8.35935 6.7354 8.69405 6.73734 9.0621C6.72763 12.7111 8.7802 15.4673 11.3229 17.1316C12.4559 17.874 13.7108 18.4112 15.0301 18.7184C16.1974 19.0104 17.4168 19.027 18.5917 18.7669C19.9397 18.5141 21.0365 17.535 21.4401 16.2242C21.4987 16.0127 21.5409 15.7969 21.5663 15.5789C21.6969 14.6104 21.4802 13.6271 20.9548 12.8033ZM19.7175 15.3217C19.7016 15.4481 19.6756 15.573 19.6399 15.6953C19.4055 16.3545 18.8345 16.8365 18.1453 16.9569C17.2536 17.1457 16.3302 17.1257 15.4474 16.8987C14.3443 16.6443 13.2947 16.1975 12.3467 15.5789C10.7284 14.5682 9.51473 13.0233 8.91606 11.2117C10.8425 12.0075 13.6083 12.2695 15.7191 12.4733V12.4685C16.248 12.517 16.7333 12.5655 17.2573 12.6286C17.4706 12.6536 17.6815 12.6958 17.8881 12.7548C18.4981 12.9117 19.0297 13.2862 19.3827 13.8077C19.6678 14.2578 19.7862 14.7934 19.7175 15.3217Z" fill="#333333"/>
    <path d="M41.9991 8.11598C41.631 8.11404 41.2963 8.32888 41.1449 8.66442C40.5481 9.96486 36.5158 10.3482 33.7644 10.6054C33.1191 10.6685 32.5368 10.7218 32.1777 10.7655C31.864 10.8052 31.5541 10.8701 31.2509 10.9596C30.2096 11.244 29.3085 11.8999 28.718 12.8035C28.1909 13.6267 27.9725 14.6102 28.1017 15.5791C28.1286 15.7973 28.1724 16.013 28.2327 16.2245C28.633 17.5299 29.7211 18.5077 31.0617 18.7671C32.2365 19.0272 33.456 19.0106 34.6233 18.7186C35.9426 18.4114 37.1975 17.8743 38.3305 17.1318C40.8781 15.4675 42.9258 12.7113 42.9258 9.05261C42.9286 8.53802 42.5137 8.11865 41.9991 8.11598ZM37.3067 15.5451C36.3608 16.1667 35.313 16.6168 34.2109 16.8747C33.3281 17.1018 32.4047 17.1217 31.5129 16.9329C30.8238 16.8124 30.2528 16.3305 30.0184 15.6713C29.9825 15.549 29.9565 15.424 29.9408 15.2976C29.8834 14.7772 30.0068 14.253 30.2901 13.8128L30.2804 13.7983C30.6334 13.2767 31.165 12.9023 31.775 12.7453C31.9816 12.6863 32.1925 12.6441 32.4058 12.6191C32.9298 12.556 33.4102 12.5075 33.944 12.459C36.0596 12.26 38.8206 11.9738 40.7373 11.178C40.1388 12.9895 38.9251 14.5345 37.3067 15.5451Z" fill="#333333"/>
    <path d="M48.353 0.777349C47.9673 0.778562 47.6218 1.01621 47.4826 1.37601C45.7746 4.95708 38.6756 5.74317 33.1972 6.38368L31.1252 6.6263C29.601 6.7942 28.1353 7.30879 26.8406 8.13054C26.0707 8.64005 25.3931 9.27668 24.8365 10.0133C24.2763 9.29221 23.5989 8.6705 22.8325 8.17422C21.532 7.34967 20.0595 6.83496 18.5284 6.66997L16.4564 6.42735C10.949 5.80625 3.80626 4.97164 2.14674 1.36631C1.92996 0.899629 1.37594 0.697042 0.90926 0.913822C0.569107 1.07189 0.356815 1.41847 0.370765 1.79332C0.535747 9.83859 3.09781 15.38 6.53816 18.8543C8.39298 20.7517 10.7113 22.1318 13.2636 22.8576C15.4811 23.4983 17.8331 23.5101 20.0569 22.8915C21.9585 22.3639 23.6364 21.2312 24.8365 19.6647C26.0432 21.2194 27.7222 22.3399 29.621 22.8576C31.8448 23.4761 34.1968 23.4644 36.4143 22.8236C38.958 22.0986 41.2692 20.724 43.1203 18.8349C45.0127 16.8951 46.4787 14.5812 47.4244 12.0416V43.9266C47.4617 44.4426 47.91 44.8305 48.4258 44.7934C48.89 44.7599 49.2591 44.3908 49.2926 43.9266V1.71083C49.2909 1.19356 48.8703 0.775651 48.353 0.777349ZM41.7908 17.5199C40.1683 19.1802 38.1414 20.3893 35.9097 21.0282C34.0288 21.5743 32.0331 21.5878 30.145 21.067C28.2019 20.5608 26.5724 19.2391 25.676 17.4423C25.4585 16.976 24.9041 16.7744 24.4378 16.9919C24.2393 17.0844 24.0799 17.2439 23.9874 17.4423C23.0909 19.2391 21.4614 20.5608 19.5183 21.067C17.6302 21.5881 15.6346 21.5746 13.7537 21.0282C11.515 20.3923 9.48113 19.183 7.85316 17.5199C5.14552 14.8026 3.00076 10.547 2.41362 4.53007C5.67443 7.08728 11.5313 7.74721 16.2721 8.30038C16.932 8.37316 17.5628 8.44595 18.3198 8.543C19.5615 8.67607 20.7565 9.09095 21.8135 9.7561C22.746 10.3527 23.499 11.1912 23.9922 12.1823C24.2215 12.6459 24.7832 12.8359 25.2468 12.6066C25.4309 12.5155 25.58 12.3664 25.6711 12.1823C26.1644 11.1912 26.9174 10.3527 27.8499 9.7561C28.9073 9.09265 30.1022 8.67947 31.3436 8.54785C32.1006 8.4508 32.7314 8.38287 33.3913 8.30523C38.1321 7.76661 43.9889 7.10669 47.2497 4.54948C46.6723 10.547 44.5275 14.8026 41.7908 17.5199Z" fill="#333333"/>
</svg>
