<svg width="101" height="68" viewBox="0 0 101 68" fill="none" xmlns="http://www.w3.org/2000/svg">
    <path d="M50.8895 0.397217C44.4308 0.397217 39.1763 5.65171 39.1763 12.1103C39.1763 18.5691 44.4308 23.8236 50.8895 23.8236C57.3481 23.8236 62.6026 18.5691 62.6026 12.1103C62.6026 5.65171 57.3481 0.397217 50.8895 0.397217ZM50.8895 19.8396C46.6276 19.8396 43.1603 16.3722 43.1603 12.1103C43.1603 7.84839 46.6276 4.3812 50.8895 4.3812C55.1515 4.3812 58.6187 7.84858 58.6187 12.1103C58.6187 16.3722 55.1515 19.8396 50.8895 19.8396Z" fill="#EEEEEE"/>
    <path d="M22.8458 12.3186C17.5382 12.3186 13.2202 16.6366 13.2202 21.9442C13.2202 27.2518 17.5382 31.5698 22.8458 31.5698C28.1534 31.5698 32.4714 27.2518 32.4714 21.9442C32.4714 16.6366 28.1532 12.3186 22.8458 12.3186ZM22.8458 27.5856C19.7351 27.5856 17.2044 25.0549 17.2044 21.9442C17.2044 18.8334 19.7351 16.3028 22.8458 16.3028C25.9565 16.3028 28.4872 18.8336 28.4872 21.9442C28.4872 25.0547 25.9565 27.5856 22.8458 27.5856Z" fill="#EEEEEE"/>
    <path d="M78.961 12.3186C73.6536 12.3186 69.3354 16.6366 69.3354 21.9442C69.3354 27.2518 73.6536 31.5698 78.961 31.5698C84.2687 31.5698 88.5864 27.2518 88.5864 21.9442C88.5864 16.6366 84.2685 12.3186 78.961 12.3186ZM78.961 27.5856C75.8503 27.5856 73.3196 25.0549 73.3196 21.9442C73.3196 18.8334 75.8503 16.3028 78.961 16.3028C82.0716 16.3028 84.6022 18.8336 84.6022 21.9442C84.6022 25.0547 82.0716 27.5856 78.961 27.5856Z" fill="#EEEEEE"/>
    <path d="M98.9079 63.6951H93.3069V49.0285C93.3069 41.1183 86.8714 34.6828 78.961 34.6828C74.5622 34.6828 70.6216 36.6746 67.9882 39.8017C65.9333 32.2875 59.0466 26.7478 50.8894 26.7478C42.7392 26.7478 35.8589 32.291 33.8091 39.8091C31.1794 36.6777 27.2415 34.6828 22.8458 34.6828C14.9356 34.6828 8.4999 41.1183 8.4999 49.0285V63.6951H2.89189C1.7917 63.6951 0.899902 64.5869 0.899902 65.6871C0.899902 66.7873 1.7917 67.6791 2.89189 67.6791H98.9079C100.008 67.6791 100.9 66.7873 100.9 65.6871C100.9 64.5869 100.008 63.6951 98.9079 63.6951ZM33.1862 63.6951H12.4839V49.0285C12.4839 43.3152 17.1321 38.6669 22.8456 38.6669C28.5474 38.6669 33.186 43.3152 33.186 49.0285V63.6951H33.1862ZM64.6157 63.6951H37.1702V44.4722C37.1702 36.8957 43.3245 30.7318 50.8894 30.7318C58.4659 30.7318 64.6298 36.8957 64.6298 44.4722L64.6157 63.6951ZM89.3228 63.6949H68.6138V48.4869C68.8964 43.0242 73.4296 38.6667 78.9612 38.6667C84.6745 38.6667 89.3228 43.315 89.3228 49.0283V63.6949Z" fill="#EEEEEE"/>
    <path d="M41.345 48.4011C40.2448 48.4011 39.353 49.2929 39.353 50.3931V59.9515C39.353 61.0517 40.2448 61.9435 41.345 61.9435C42.4452 61.9435 43.337 61.0517 43.337 59.9515V50.3933C43.337 49.2933 42.4452 48.4011 41.345 48.4011Z" fill="#EEEEEE"/>
</svg>
