<svg width="16" height="20" viewBox="0 0 16 20" fill="none" xmlns="http://www.w3.org/2000/svg">
<path d="M5.26172 18.1953C5.73121 19.2567 6.79372 19.9996 8.02701 19.9996C9.26031 19.9996 10.3228 19.2567 10.7923 18.1953H5.26172Z" fill="#AAAAAA"/>
<path d="M8.03104 1.91083C8.84489 1.91083 9.62635 2.05443 10.3515 2.31732V2.228C10.3515 0.999472 9.35206 0 8.12358 0H7.93893C6.71041 0 5.71094 0.999472 5.71094 2.228V2.31619C6.43573 2.05407 7.21695 1.91083 8.03104 1.91083V1.91083Z" fill="#AAAAAA"/>
<path d="M15.3509 17.0225H0.70395C0.426849 17.0225 0.173029 16.8356 0.115394 16.5645C0.0583466 16.2962 0.180659 16.0313 0.428805 15.9166C0.487692 15.8784 0.930928 15.5685 1.37467 14.6308C2.18966 12.9088 2.36072 10.4831 2.36072 8.7514C2.36072 5.62688 4.90272 3.08496 8.0272 3.08496C11.1443 3.08496 13.6816 5.61463 13.6936 8.7289C13.6939 8.73638 13.6941 8.74389 13.6941 8.7514C13.6941 10.4831 13.8651 12.9088 14.6801 14.6308C15.1239 15.5685 15.5671 15.8785 15.626 15.9166C15.8741 16.0313 15.9965 16.2961 15.9394 16.5645C15.8818 16.8356 15.628 17.0225 15.3509 17.0225ZM15.6326 15.9208H15.633H15.6326Z" fill="#AAAAAA"/>
</svg>
