<svg width="86" height="95" viewBox="0 0 86 95" fill="none" xmlns="http://www.w3.org/2000/svg">
    <path d="M84.5738 34.8881C83.9374 34.5081 83.1482 34.4903 82.4958 34.8415L68.8788 42.1707V35.8899C68.8788 34.7269 67.9358 33.784 66.7731 33.784H63.3484C67.6194 30.3201 70.3547 25.033 70.3547 19.118C70.3549 8.70904 61.8863 0.240479 51.477 0.240479C42.5923 0.240479 35.1226 6.41078 33.1251 14.6908C30.5119 11.5378 26.5678 9.52568 22.1622 9.52568C14.3128 9.52568 7.92705 15.9116 7.92705 23.7608C7.92705 27.6669 9.50911 31.2097 12.0653 33.7845H10.1426C8.97955 33.7845 8.03669 34.7274 8.03669 35.8904V45.4496H2.70551C1.54247 45.4496 0.599609 46.3925 0.599609 47.5555V55.8369C0.599609 57 1.54247 57.9428 2.70551 57.9428H8.03651V67.502C8.03651 68.665 8.97936 69.6079 10.1424 69.6079H34.9852L23.5711 91.5025C23.0334 92.5337 23.4336 93.8056 24.4649 94.3433C24.7759 94.5054 25.1087 94.5823 25.4365 94.5823C26.1962 94.5823 26.9299 94.1697 27.3054 93.4496L38.4574 72.0575L49.6095 93.4496C49.985 94.1701 50.7189 94.5823 51.4786 94.5823C51.8064 94.5823 52.1394 94.5054 52.4502 94.3433C53.4815 93.8056 53.8817 92.5337 53.3439 91.5025L41.9297 69.6079H66.7729C67.9358 69.6079 68.8788 68.665 68.8788 67.502V61.221L82.4958 68.5503C82.8079 68.7181 83.1508 68.8018 83.4937 68.8018C83.8678 68.8018 84.2416 68.7021 84.5738 68.5038C85.2103 68.1237 85.5996 67.4371 85.5996 66.6961V36.6958C85.5996 35.9546 85.2103 35.2682 84.5738 34.8881ZM8.03669 53.7305H4.81141V49.6607H8.03669V53.7305ZM51.477 4.4521C59.5637 4.4521 66.1431 11.0313 66.1431 19.1182C66.1431 27.2052 59.5639 33.7842 51.477 33.7842C43.3902 33.7842 36.811 27.205 36.811 19.1182C36.8112 11.0315 43.3904 4.4521 51.477 4.4521ZM35.3961 28.9949C36.5208 30.8198 37.9475 32.4393 39.6059 33.7842H32.2591C33.6058 32.4277 34.6789 30.8008 35.3961 28.9949ZM22.1622 13.7371C27.6891 13.7371 32.1857 18.2336 32.1857 23.7606C32.1857 29.2877 27.6892 33.7844 22.1622 33.7844C16.6353 33.7844 12.1387 29.2879 12.1387 23.7606C12.1389 18.2336 16.6353 13.7371 22.1622 13.7371ZM64.6672 45.6956V57.6952V65.3954H38.4955C38.4916 65.3954 38.488 65.3954 38.4841 65.3954H38.4284C38.426 65.3954 38.4237 65.3954 38.4213 65.3954H12.2483V55.8362V47.5548V37.9956H64.6672V45.6956ZM81.388 63.1704L68.8788 56.4372V46.9538L81.388 40.2205V63.1704Z" fill="#EEEEEE"/>
    <path d="M22.1639 17.364C18.6366 17.364 15.7671 20.2337 15.7671 23.7608C15.7671 27.288 18.6368 30.1575 22.1639 30.1575C25.6911 30.1575 28.5606 27.2879 28.5606 23.7608C28.5608 20.2337 25.6911 17.364 22.1639 17.364ZM22.1639 26.3669C20.7266 26.3669 19.5575 25.1978 19.5575 23.7606C19.5575 22.3234 20.7266 21.1542 22.1639 21.1542C23.6011 21.1542 24.7702 22.3234 24.7702 23.7606C24.7702 25.1978 23.6009 26.3669 22.1639 26.3669Z" fill="#EEEEEE"/>
    <path d="M51.4774 9.93164C46.412 9.93164 42.291 14.0528 42.291 19.1183C42.291 24.1836 46.412 28.3047 51.4774 28.3047C56.5429 28.3047 60.6638 24.1836 60.6638 19.1183C60.6638 14.0528 56.5431 9.93164 51.4774 9.93164ZM51.4774 24.0931C48.7344 24.0931 46.5026 21.8613 46.5026 19.1183C46.5026 16.3752 48.7344 14.1433 51.4774 14.1433C54.2205 14.1433 56.4522 16.375 56.4522 19.1183C56.4522 21.8615 54.2205 24.0931 51.4774 24.0931Z" fill="#EEEEEE"/>
    <path d="M44.6828 44.1196H21.7866C20.6816 44.1196 19.7861 45.0153 19.7861 46.1201V57.2713C19.7861 58.3763 20.6818 59.2718 21.7866 59.2718H44.6828C45.7878 59.2718 46.6833 58.3762 46.6833 57.2713V46.1201C46.6833 45.0155 45.7876 44.1196 44.6828 44.1196ZM42.6821 55.2708H23.7872V48.1208H42.6823V55.2708H42.6821Z" fill="#EEEEEE"/>
    <path d="M55.729 50.3319C56.892 50.3319 57.8349 49.389 57.8349 48.226C57.8349 47.063 56.892 46.1201 55.729 46.1201C54.5659 46.1201 53.623 47.063 53.623 48.226C53.623 49.389 54.5659 50.3319 55.729 50.3319Z" fill="#EEEEEE"/>
    <path d="M55.729 57.2704C56.892 57.2704 57.8349 56.3276 57.8349 55.1645C57.8349 54.0014 56.892 53.0586 55.729 53.0586C54.5659 53.0586 53.623 54.0014 53.623 55.1645C53.623 56.3276 54.5659 57.2704 55.729 57.2704Z" fill="#EEEEEE"/>
</svg>
