<svg width="29" height="29" viewBox="0 0 29 29" fill="none" xmlns="http://www.w3.org/2000/svg">
    <path d="M6.30968 5.45996H22.6903C23.1594 5.45996 23.5399 5.84052 23.5399 6.30957V13.8423C23.7694 14.005 23.9935 14.1762 24.2105 14.3574L26.6379 16.3803H28.1504C28.6197 16.3803 29 16.7607 29 17.2299V28.1503C29 28.6196 28.6197 28.9999 28.1504 28.9999H6.30968C5.84062 28.9999 5.46007 28.6196 5.46007 28.1503V18.0222C2.38134 17.6061 0 14.961 0 11.7699V11.769C0 8.28425 2.81876 5.45996 6.30968 5.45996ZM21.8407 7.23684C18.8438 7.79152 18.0796 10.5273 18.0796 11.769V11.7699C18.0796 11.8017 18.0777 11.8329 18.0741 11.8639C19.3824 11.9659 20.659 12.3035 21.8405 12.8544V7.23684H21.8407ZM12.6196 27.3007H27.3008V18.0795H12.6196V27.3007ZM23.984 16.3803L23.1229 15.6626C21.4719 14.287 19.3793 13.5295 17.23 13.5295C15.081 13.5295 12.9882 14.287 11.3374 15.6626L10.4763 16.3803H23.984ZM7.15929 27.3007H10.9204V18.0795H7.15929V27.3007ZM7.15929 16.3803H7.82216L10.2495 14.3572C11.9883 12.9084 14.1407 12.0389 16.3862 11.8637C16.3826 11.8325 16.3804 11.8011 16.3804 11.769C16.3804 8.84933 18.3177 7.2198 18.3823 7.15918H7.15929V16.3803ZM1.69922 11.7699C1.69922 14.022 3.32233 15.9022 5.46007 16.302V7.23684C2.46342 7.79152 1.69922 10.5273 1.69922 11.769V11.7699Z" fill="#222222"/>
    <path d="M19.9601 22.63C19.491 22.63 19.1105 22.2497 19.1105 21.7804V20.8706C19.1105 20.4013 19.491 20.021 19.9601 20.021C20.4293 20.021 20.8097 20.4013 20.8097 20.8706V21.7804C20.8097 22.2497 20.4293 22.63 19.9601 22.63Z" fill="#222222"/>
    <path d="M28.1504 12.1647H27.6349V12.6802C27.6349 13.1495 27.2545 13.5298 26.7853 13.5298C26.3162 13.5298 25.9357 13.1495 25.9357 12.6802V12.1647H25.4204C24.9511 12.1647 24.5707 11.7844 24.5707 11.3151C24.5707 10.846 24.9511 10.4655 25.4204 10.4655H25.9357V9.9502C25.9357 9.48092 26.3162 9.10059 26.7853 9.10059C27.2545 9.10059 27.6349 9.48092 27.6349 9.9502V10.4655H28.1504C28.6197 10.4655 29 10.846 29 11.3151C29 11.7844 28.6197 12.1647 28.1504 12.1647V12.1647Z" fill="#222222"/>
    <path d="M19.05 3.06435H18.5348V3.57964C18.5348 4.04892 18.1542 4.42925 17.6851 4.42925C17.2159 4.42925 16.8355 4.04892 16.8355 3.57964V3.06435H16.32C15.8507 3.06435 15.4704 2.68379 15.4704 2.21474C15.4704 1.74546 15.8507 1.36513 16.32 1.36513H16.8355V0.849609C16.8355 0.380333 17.2159 0 17.6851 0C18.1542 0 18.5348 0.380333 18.5348 0.849609V1.36513H19.05C19.5193 1.36513 19.8997 1.74546 19.8997 2.21474C19.8997 2.68379 19.5193 3.06435 19.05 3.06435Z" fill="#222222"/>
    <path d="M11.77 11.2546H11.2544V11.7701C11.2544 12.2393 10.8741 12.6197 10.4048 12.6197C9.93555 12.6197 9.55522 12.2393 9.55522 11.7701V11.2546H9.03992C8.57065 11.2546 8.19032 10.8742 8.19032 10.4049C8.19032 9.93567 8.57065 9.55534 9.03992 9.55534H9.55522V9.04004C9.55522 8.57076 9.93555 8.19043 10.4048 8.19043C10.8741 8.19043 11.2544 8.57076 11.2544 9.04004V9.55534H11.77C12.2392 9.55534 12.6196 9.93589 12.6196 10.4049C12.6196 10.8742 12.2392 11.2546 11.77 11.2546Z" fill="#222222"/>
</svg>
