<svg width="100" height="92" viewBox="0 0 100 92" fill="none" xmlns="http://www.w3.org/2000/svg">
<path d="M96.0881 8.3796H36.5103C34.8724 3.51478 30.2709 0 24.8608 0C19.4507 0 14.8493 3.51478 13.2113 8.3796H3.91168C1.75139 8.3796 0 10.131 0 12.2913C0 14.4516 1.75139 16.203 3.91168 16.203H13.2116C14.8495 21.0678 19.451 24.5826 24.8611 24.5826C30.2712 24.5826 34.8726 21.0678 36.5106 16.203H96.0883C98.2486 16.203 100 14.4516 100 12.2913C100 10.131 98.2486 8.3796 96.0881 8.3796V8.3796ZM24.8608 16.7592C22.3972 16.7592 20.3929 14.7549 20.3929 12.2913C20.3929 9.8277 22.3972 7.82336 24.8608 7.82336C27.3244 7.82336 29.3287 9.8277 29.3287 12.2913C29.3287 14.7549 27.3244 16.7592 24.8608 16.7592Z" fill="#734ce3"/>
<path d="M96.0881 41.9001H86.7882C85.1502 37.0353 80.5485 33.5205 75.1387 33.5205C69.7288 33.5205 65.1274 37.0353 63.4894 41.9001H3.91168C1.75139 41.9001 0 43.6515 0 45.8118C0 47.9721 1.75139 49.7235 3.91168 49.7235H63.4894C65.1274 54.5883 69.7291 58.1031 75.1389 58.1031C80.5488 58.1031 85.1505 54.5883 86.7884 49.7235H96.0883C98.2486 49.7235 100 47.9721 100 45.8118C100 43.6515 98.2486 41.9001 96.0881 41.9001ZM75.1389 50.2797C72.6754 50.2797 70.671 48.2754 70.671 45.8118C70.671 43.3482 72.6754 41.3439 75.1389 41.3439C77.6025 41.3439 79.6068 43.3482 79.6068 45.8118C79.6068 48.2754 77.6025 50.2797 75.1389 50.2797Z" fill="#734ce3"/>
<path d="M96.0881 75.4157H53.2698C51.6318 70.5509 47.0304 67.0361 41.6203 67.0361C36.2102 67.0361 31.6087 70.5509 29.9708 75.4157H3.91168C1.75139 75.4157 0 77.1671 0 79.3274C0 81.4877 1.75139 83.2391 3.91168 83.2391H29.9708C31.6087 88.1039 36.2102 91.6187 41.6203 91.6187C47.0304 91.6187 51.6318 88.1039 53.2698 83.2391H96.0883C98.2486 83.2391 100 81.4877 100 79.3274C100 77.1671 98.2486 75.4157 96.0881 75.4157ZM41.6203 83.7956C39.1567 83.7956 37.1523 81.7912 37.1523 79.3277C37.1523 76.8641 39.1567 74.8598 41.6203 74.8598C44.0838 74.8598 46.0882 76.8638 46.0882 79.3274C46.0882 81.791 44.0838 83.7956 41.6203 83.7956V83.7956Z" fill="#734ce3"/>
</svg>
