<svg width="26" height="18" viewBox="0 0 26 18" fill="none" xmlns="http://www.w3.org/2000/svg">
    <path d="M25.986 11.8098C25.9213 10.3201 25.6622 8.66855 25.2736 7.11411C24.885 5.62444 24.3992 4.23192 23.8163 3.16324C21.5494 -0.820005 19.0882 -0.204706 16.1413 0.572513C15.2021 0.799202 14.1982 1.05827 13.1619 1.15543H12.8381C11.8018 1.05827 10.7979 0.799202 9.85875 0.572513C6.91179 -0.172322 4.4506 -0.820004 2.18371 3.19563C1.6008 4.2643 1.08265 5.65682 0.726425 7.14649C0.337816 8.70093 0.078743 10.3525 0.0139748 11.8422C-0.0507934 13.4938 0.111127 14.692 0.467352 15.534C0.823578 16.3112 1.34172 16.797 2.02179 16.9913C2.63709 17.1532 3.34954 17.0884 4.09437 16.7646C5.35735 16.2464 6.81464 15.1454 8.23954 13.8176C9.24345 12.8461 11.1217 12.3603 13 12.3603C14.8783 12.3603 16.7566 12.8461 17.7605 13.8176C19.1854 15.1454 20.6427 16.2464 21.9056 16.7646C22.6505 17.056 23.3629 17.1532 23.9782 16.9913C24.6259 16.797 25.1764 16.3436 25.5327 15.5016C25.8889 14.692 26.0508 13.4938 25.986 11.8098ZM24.4316 15.0482C24.2373 15.5016 23.9782 15.7607 23.6544 15.8578C23.2982 15.955 22.8448 15.8902 22.3266 15.6959C21.1932 15.2425 19.8654 14.2386 18.5701 13.008C17.3395 11.7774 15.1697 11.1621 13 11.1621C10.8303 11.1621 8.66053 11.7774 7.39755 12.9433C6.0698 14.1738 4.74206 15.2101 3.641 15.6311C3.12285 15.8254 2.66947 15.9226 2.31325 15.7931C1.98941 15.6959 1.73033 15.4368 1.53603 14.9835C1.27696 14.3682 1.14742 13.3642 1.21219 11.8746C1.27696 10.4821 1.50364 8.89523 1.89225 7.40556C2.24848 6.01305 2.70186 4.71768 3.25239 3.74616C5.03351 0.540129 7.1061 1.05828 9.56729 1.70596C10.5712 1.96503 11.6075 2.2241 12.7409 2.32126C12.7733 2.32126 12.7733 2.32126 12.8057 2.32126H13.1619C13.1943 2.32126 13.1943 2.32126 13.2267 2.32126C14.3925 2.2241 15.4288 1.96503 16.4327 1.70596C18.8939 1.09066 20.9665 0.540129 22.7476 3.74616C23.2982 4.71768 23.7515 5.98066 24.1078 7.40556C24.464 8.89523 24.7231 10.4497 24.7878 11.8746C24.8526 13.3642 24.7231 14.3682 24.4316 15.0482Z" fill="#eee"/>
    <path d="M10.0207 5.49492C9.6969 5.20346 9.30829 4.97677 8.85491 4.94439C8.82253 4.52339 8.62822 4.1024 8.33676 3.81094L8.30438 3.77856C7.94815 3.42233 7.49478 3.22803 6.97663 3.22803C6.45848 3.22803 5.97272 3.45472 5.64888 3.77856C5.35743 4.07001 5.13074 4.49101 5.09835 4.94439C4.64497 4.97677 4.25636 5.17107 3.93252 5.46253L3.90014 5.49492C3.54391 5.85114 3.34961 6.30452 3.34961 6.82266C3.34961 7.34081 3.5763 7.82657 3.90014 8.15041C4.22398 8.47426 4.61259 8.66856 5.09835 8.70094C5.13074 9.15432 5.32504 9.57532 5.64888 9.86677C6.00511 10.223 6.45848 10.4173 6.97663 10.4173C7.49478 10.4173 7.98054 10.1906 8.30438 9.86677C8.59584 9.54293 8.82253 9.15432 8.85491 8.70094C9.30829 8.66856 9.72928 8.47426 10.0207 8.15041C10.377 7.79419 10.5713 7.34081 10.5713 6.82266C10.5713 6.30452 10.3446 5.81876 10.0207 5.49492ZM9.21114 7.30843C9.0816 7.43796 8.91968 7.50273 8.72537 7.50273H8.272C7.94815 7.50273 7.6567 7.7618 7.6567 8.11803V8.53902C7.6567 8.73333 7.59193 8.89525 7.46239 9.02479C7.33286 9.15432 7.17094 9.21909 6.97663 9.21909C6.78233 9.21909 6.62041 9.15432 6.49087 9.02479C6.36133 8.89525 6.29656 8.73333 6.29656 8.53902V8.08565C6.29656 7.76181 6.03749 7.47035 5.68127 7.47035H5.22789C5.03358 7.47035 4.87166 7.40558 4.74213 7.27604C4.64497 7.17889 4.54782 7.01697 4.54782 6.82266C4.54782 6.62836 4.61259 6.46644 4.74213 6.3369C4.74213 6.3369 4.74213 6.3369 4.77451 6.30452C4.90405 6.20737 5.06597 6.1426 5.22789 6.1426H5.68127C6.00511 6.1426 6.29656 5.88353 6.29656 5.5273V5.07392C6.29656 4.87962 6.36133 4.7177 6.49087 4.58816C6.62041 4.45862 6.78233 4.39386 6.97663 4.39386C7.17094 4.39386 7.33286 4.45862 7.46239 4.58816C7.46239 4.58816 7.46239 4.58816 7.49478 4.62054C7.59193 4.75008 7.6567 4.912 7.6567 5.07392V5.5273C7.6567 5.85114 7.91577 6.1426 8.272 6.1426H8.72537C8.91968 6.1426 9.0816 6.20737 9.21114 6.3369C9.34067 6.46644 9.40544 6.62836 9.40544 6.82266C9.40544 7.01697 9.34067 7.17889 9.21114 7.30843Z" fill="#eee"/>
    <path d="M18.6349 5.65654C19.2609 5.65654 19.7684 5.14908 19.7684 4.52309C19.7684 3.89711 19.2609 3.38965 18.6349 3.38965C18.0089 3.38965 17.5015 3.89711 17.5015 4.52309C17.5015 5.14908 18.0089 5.65654 18.6349 5.65654Z" fill="#eee"/>
    <path d="M18.6349 10.2552C19.2609 10.2552 19.7684 9.74771 19.7684 9.12173C19.7684 8.49574 19.2609 7.98828 18.6349 7.98828C18.0089 7.98828 17.5015 8.49574 17.5015 9.12173C17.5015 9.74771 18.0089 10.2552 18.6349 10.2552Z" fill="#eee"/>
    <path d="M16.3356 7.95585C16.9616 7.95585 17.469 7.44839 17.469 6.82241C17.469 6.19643 16.9616 5.68896 16.3356 5.68896C15.7096 5.68896 15.2021 6.19643 15.2021 6.82241C15.2021 7.44839 15.7096 7.95585 16.3356 7.95585Z" fill="#eee"/>
    <path d="M20.9342 7.95585C21.5601 7.95585 22.0676 7.44839 22.0676 6.82241C22.0676 6.19643 21.5601 5.68896 20.9342 5.68896C20.3082 5.68896 19.8007 6.19643 19.8007 6.82241C19.8007 7.44839 20.3082 7.95585 20.9342 7.95585Z" fill="#eee"/>
</svg>
