<svg width="91" height="91" viewBox="0 0 91 91" fill="none" xmlns="http://www.w3.org/2000/svg">
    <path d="M85.6265 50.8606V40.1379C85.6265 29.5266 81.4942 19.5504 73.991 12.0469C66.4874 4.54364 56.5113 0.411377 45.8999 0.411377C35.2885 0.411377 25.3124 4.54364 17.8088 12.0469C10.3056 19.5504 6.17334 29.5266 6.17334 40.1379V50.8606H0.899902V56.134H6.17334V61.4075C6.17334 68.6769 12.0875 74.5911 19.3569 74.5911C26.6264 74.5911 32.5405 68.6769 32.5405 61.4075V45.5872C32.5405 38.3177 26.6264 32.4036 19.3569 32.4036C16.578 32.4036 13.997 33.2681 11.8687 34.7418C12.3517 31.6837 13.2392 28.7586 14.4734 26.0218C16.1271 26.7276 17.8929 27.0777 19.6559 27.0777C23.0606 27.0777 26.4529 25.7764 28.9955 23.2336C33.511 18.7183 39.5145 16.2317 45.8999 16.2317C52.2855 16.2317 58.2888 18.7183 62.8039 23.2336C66.6634 27.093 72.4779 28.0899 77.3261 26.0209C78.5604 28.7579 79.4479 31.6834 79.9312 34.7416C77.8028 33.2681 75.2218 32.4036 72.4429 32.4036C65.1734 32.4036 59.2593 38.3177 59.2593 45.5872V61.4075C59.2593 67.7006 63.6927 72.9748 69.5996 74.2789C68.6231 79.7437 64.2692 84.0534 58.7815 84.9613C57.4893 79.0387 52.2043 74.5911 45.8999 74.5911C38.6305 74.5911 32.7163 80.5052 32.7163 87.7747V90.4114H56.6226C65.9868 90.4114 73.744 83.4016 74.9239 74.3536C81.0108 73.1894 85.6265 67.8288 85.6265 61.4075V56.134H90.8999V50.8606H85.6265ZM21.9937 38.1305C25.0626 39.219 27.2671 42.1498 27.2671 45.5872V61.4075C27.2671 64.8449 25.0626 67.7757 21.9937 68.8641V38.1305ZM16.7202 38.1305V68.8641C13.6513 67.7757 11.4468 64.8449 11.4468 61.4075V45.5872C11.4468 42.1498 13.6513 39.219 16.7202 38.1305ZM66.5329 19.5047C61.0217 13.9935 53.694 10.9583 45.8999 10.9583C38.1058 10.9583 30.7783 13.9935 25.2665 19.5047C23.0745 21.6974 19.8315 22.3503 17.0252 21.3612C23.1788 11.9305 33.8237 5.68481 45.8999 5.68481C57.9761 5.68481 68.621 11.9305 74.7746 21.361C71.9683 22.3505 68.7254 21.6974 66.5329 19.5047ZM38.4415 85.1379C39.5296 82.0686 42.4621 79.8645 45.8999 79.8645C49.3377 79.8645 52.27 82.0686 53.3583 85.1379H38.4415ZM69.8062 68.8641C66.7372 67.7757 64.5327 64.8449 64.5327 61.4075V45.5872C64.5327 42.1498 66.7372 39.219 69.8062 38.1305V68.8641ZM80.353 61.4075C80.353 64.8449 78.1486 67.7757 75.0796 68.8641V38.1305C78.1486 39.219 80.353 42.1498 80.353 45.5872V61.4075Z" fill="#EEEEEE"/>
</svg>
