<svg width="542" height="103" viewBox="0 0 542 103" fill="none" xmlns="http://www.w3.org/2000/svg">
<g filter="url(#filter0_d_4763_44)">
<path d="M175.556 31.431C175.31 31.841 175.037 32.1553 174.736 32.374C174.463 32.5653 174.121 32.661 173.711 32.661C173.246 32.661 172.7 32.4287 172.071 31.964C171.442 31.4993 170.65 30.9937 169.693 30.447C168.764 29.873 167.629 29.3537 166.29 28.889C164.978 28.4243 163.379 28.192 161.493 28.192C159.716 28.192 158.145 28.438 156.778 28.93C155.439 29.3947 154.304 30.037 153.375 30.857C152.473 31.677 151.79 32.6473 151.325 33.768C150.86 34.8613 150.628 36.0503 150.628 37.335C150.628 38.975 151.024 40.3417 151.817 41.435C152.637 42.501 153.703 43.4167 155.015 44.182C156.354 44.9473 157.858 45.617 159.525 46.191C161.22 46.7377 162.942 47.3117 164.691 47.913C166.468 48.5143 168.19 49.1977 169.857 49.963C171.552 50.701 173.055 51.644 174.367 52.792C175.706 53.94 176.772 55.3477 177.565 57.015C178.385 58.6823 178.795 60.7323 178.795 63.165C178.795 65.7343 178.358 68.1533 177.483 70.422C176.608 72.6633 175.324 74.6177 173.629 76.285C171.962 77.9523 169.898 79.2643 167.438 80.221C165.005 81.1777 162.231 81.656 159.115 81.656C155.288 81.656 151.817 80.9727 148.701 79.606C145.585 78.212 142.92 76.3397 140.706 73.989L143.002 70.217C143.221 69.9163 143.48 69.6703 143.781 69.479C144.109 69.2603 144.464 69.151 144.847 69.151C145.202 69.151 145.599 69.3013 146.036 69.602C146.501 69.8753 147.02 70.2307 147.594 70.668C148.168 71.1053 148.824 71.5837 149.562 72.103C150.3 72.6223 151.134 73.1007 152.063 73.538C153.02 73.9753 154.099 74.3443 155.302 74.645C156.505 74.9183 157.858 75.055 159.361 75.055C161.247 75.055 162.928 74.7953 164.404 74.276C165.88 73.7567 167.124 73.0323 168.135 72.103C169.174 71.1463 169.966 70.012 170.513 68.7C171.06 67.388 171.333 65.9257 171.333 64.313C171.333 62.5363 170.923 61.0877 170.103 59.967C169.31 58.819 168.258 57.8623 166.946 57.097C165.634 56.3317 164.131 55.6893 162.436 55.17C160.741 54.6233 159.019 54.0767 157.27 53.53C155.521 52.956 153.799 52.3 152.104 51.562C150.409 50.824 148.906 49.8673 147.594 48.692C146.282 47.5167 145.216 46.0543 144.396 44.305C143.603 42.5283 143.207 40.3417 143.207 37.745C143.207 35.6677 143.603 33.6587 144.396 31.718C145.216 29.7773 146.391 28.0553 147.922 26.552C149.48 25.0487 151.38 23.846 153.621 22.944C155.89 22.042 158.486 21.591 161.411 21.591C164.691 21.591 167.67 22.1103 170.349 23.149C173.055 24.1877 175.433 25.691 177.483 27.659L175.556 31.431ZM295.567 28.93H276.543V81H268.63V28.93H249.565V22.247H295.567V28.93ZM355.927 51.644C355.927 56.0447 355.23 60.09 353.836 63.78C352.442 67.4427 350.474 70.5997 347.932 73.251C345.39 75.9023 342.328 77.966 338.748 79.442C335.194 80.8907 331.258 81.615 326.94 81.615C322.621 81.615 318.685 80.8907 315.132 79.442C311.578 77.966 308.531 75.9023 305.989 73.251C303.447 70.5997 301.479 67.4427 300.085 63.78C298.691 60.09 297.994 56.0447 297.994 51.644C297.994 47.2433 298.691 43.2117 300.085 39.549C301.479 35.859 303.447 32.6883 305.989 30.037C308.531 27.3583 311.578 25.281 315.132 23.805C318.685 22.329 322.621 21.591 326.94 21.591C331.258 21.591 335.194 22.329 338.748 23.805C342.328 25.281 345.39 27.3583 347.932 30.037C350.474 32.6883 352.442 35.859 353.836 39.549C355.23 43.2117 355.927 47.2433 355.927 51.644ZM347.768 51.644C347.768 48.036 347.276 44.797 346.292 41.927C345.308 39.057 343.914 36.638 342.11 34.67C340.306 32.6747 338.119 31.144 335.55 30.078C332.98 29.012 330.11 28.479 326.94 28.479C323.796 28.479 320.94 29.012 318.371 30.078C315.801 31.144 313.601 32.6747 311.77 34.67C309.966 36.638 308.572 39.057 307.588 41.927C306.604 44.797 306.112 48.036 306.112 51.644C306.112 55.252 306.604 58.491 307.588 61.361C308.572 64.2037 309.966 66.6227 311.77 68.618C313.601 70.586 315.801 72.103 318.371 73.169C320.94 74.2077 323.796 74.727 326.94 74.727C330.11 74.727 332.98 74.2077 335.55 73.169C338.119 72.103 340.306 70.586 342.11 68.618C343.914 66.6227 345.308 64.2037 346.292 61.361C347.276 58.491 347.768 55.252 347.768 51.644ZM421.591 51.644C421.591 56.0447 420.894 60.09 419.5 63.78C418.106 67.4427 416.138 70.5997 413.596 73.251C411.054 75.9023 407.992 77.966 404.412 79.442C400.858 80.8907 396.922 81.615 392.604 81.615C388.285 81.615 384.349 80.8907 380.796 79.442C377.242 77.966 374.195 75.9023 371.653 73.251C369.111 70.5997 367.143 67.4427 365.749 63.78C364.355 60.09 363.658 56.0447 363.658 51.644C363.658 47.2433 364.355 43.2117 365.749 39.549C367.143 35.859 369.111 32.6883 371.653 30.037C374.195 27.3583 377.242 25.281 380.796 23.805C384.349 22.329 388.285 21.591 392.604 21.591C396.922 21.591 400.858 22.329 404.412 23.805C407.992 25.281 411.054 27.3583 413.596 30.037C416.138 32.6883 418.106 35.859 419.5 39.549C420.894 43.2117 421.591 47.2433 421.591 51.644ZM413.432 51.644C413.432 48.036 412.94 44.797 411.956 41.927C410.972 39.057 409.578 36.638 407.774 34.67C405.97 32.6747 403.783 31.144 401.214 30.078C398.644 29.012 395.774 28.479 392.604 28.479C389.46 28.479 386.604 29.012 384.035 30.078C381.465 31.144 379.265 32.6747 377.434 34.67C375.63 36.638 374.236 39.057 373.252 41.927C372.268 44.797 371.776 48.036 371.776 51.644C371.776 55.252 372.268 58.491 373.252 61.361C374.236 64.2037 375.63 66.6227 377.434 68.618C379.265 70.586 381.465 72.103 384.035 73.169C386.604 74.2077 389.46 74.727 392.604 74.727C395.774 74.727 398.644 74.2077 401.214 73.169C403.783 72.103 405.97 70.586 407.774 68.618C409.578 66.6227 410.972 64.2037 411.956 61.361C412.94 58.491 413.432 55.252 413.432 51.644ZM449.248 50.701C451.544 50.701 453.566 50.4277 455.316 49.881C457.092 49.307 458.568 48.5143 459.744 47.503C460.946 46.4643 461.848 45.2343 462.45 43.813C463.051 42.3917 463.352 40.82 463.352 39.098C463.352 35.5993 462.204 32.9617 459.908 31.185C457.612 29.4083 454.168 28.52 449.576 28.52H440.884V50.701H449.248ZM476.39 81H469.338C467.889 81 466.823 80.4397 466.14 79.319L450.888 58.327C450.423 57.671 449.917 57.2063 449.371 56.933C448.851 56.6323 448.031 56.482 446.911 56.482H440.884V81H432.971V22.247H449.576C453.293 22.247 456.505 22.6297 459.211 23.395C461.917 24.133 464.144 25.2127 465.894 26.634C467.67 28.0553 468.982 29.7773 469.83 31.8C470.677 33.7953 471.101 36.0367 471.101 38.524C471.101 40.6013 470.773 42.542 470.117 44.346C469.461 46.15 468.504 47.7763 467.247 49.225C466.017 50.6463 464.5 51.8627 462.696 52.874C460.919 53.8853 458.896 54.6507 456.628 55.17C457.639 55.744 458.514 56.5777 459.252 57.671L476.39 81ZM531.982 22.247V81H528.005C527.376 81 526.843 80.8907 526.406 80.672C525.996 80.4533 525.586 80.0843 525.176 79.565L491.187 35.285C491.241 35.9683 491.282 36.638 491.31 37.294C491.337 37.95 491.351 38.565 491.351 39.139V81H484.381V22.247H488.481C488.836 22.247 489.137 22.2743 489.383 22.329C489.629 22.3563 489.847 22.4247 490.039 22.534C490.23 22.616 490.421 22.7527 490.613 22.944C490.804 23.108 491.009 23.3267 491.228 23.6L525.217 67.839C525.162 67.1283 525.107 66.445 525.053 65.789C525.025 65.1057 525.012 64.4633 525.012 63.862V22.247H531.982Z" fill="#DDDDDD"/>
<path d="M217.5 27.6667L245.463 77.75H189.537L217.5 27.6667Z" stroke="#DDDDDD" stroke-width="6.5"/>
</g>
<g filter="url(#filter1_d_4763_44)">
<path d="M87.6353 87.8818C110.043 74.9448 117.657 46.1844 104.643 23.6427C91.6289 1.10133 62.9139 -6.68477 40.5065 6.25208C18.0992 19.1889 10.4847 47.95 23.4991 70.4912C36.5133 93.0328 65.2282 100.819 87.6353 87.8818Z" fill="#734CE3"/>
<path d="M59.745 93.3819L106.633 66.3108C109.266 60.4645 110.118 56.7195 110.737 50.9849L44.4336 89.2648C50.866 92.0297 54.3334 92.7754 59.745 93.3819Z" fill="#673DDE"/>
<path d="M35.4167 83.7824C61.1705 68.9138 84.7703 54.9647 110.524 40.0955C109.981 36.1979 109.027 32.8618 107.572 28.8428L27.0625 75.325C31.0518 80.1478 31.2947 80.0076 35.4167 83.7824Z" fill="#673DDE"/>
<path d="M35.4167 83.7823C61.1709 68.9131 84.7702 54.964 110.524 40.0948C109.981 36.1974 109.026 32.8612 107.572 28.8423L27.0625 75.3243C28.9 77.5029 30.9108 79.9048 35.4167 83.7823Z" fill="#673DDE"/>
<g filter="url(#filter2_d_4763_44)">
<path d="M114.342 14.3628C116.046 14.3747 116.938 14.601 117.366 14.7627C117.286 15.2312 117.026 16.1547 116.185 17.7058C114.607 20.613 111.666 24.373 107.338 28.7407C98.7425 37.4136 85.5559 47.6051 69.807 57.1296C54.0584 66.6536 39.0384 73.5198 27.5703 76.981C21.7952 78.7237 17.2162 79.5114 14.0238 79.4889C12.3206 79.4772 11.4274 79.2505 11 79.0889C11.08 78.6204 11.3395 77.6969 12.1813 76.1456C13.7589 73.2387 16.6996 69.4785 21.028 65.1112C29.6234 56.4384 42.8103 46.2462 58.5588 36.7223C74.3078 27.1978 89.3273 20.3316 100.795 16.8708C106.571 15.1279 111.15 14.3403 114.342 14.3628Z" stroke="#FEE233" stroke-width="11"/>
</g>
<path d="M104.643 23.6427C74.032 41.3161 86.4786 34.13 64.071 47.0669C41.6638 60.0038 54.1103 52.8178 23.4991 70.4912C10.4847 47.95 18.0993 19.1889 40.5063 6.25208C62.9141 -6.68477 91.6291 1.10133 104.643 23.6427Z" fill="#734CE3"/>
<path d="M17.5703 53.2718C43.3243 38.403 67.2042 24.9399 92.9579 10.0708C96.0623 12.4899 98.4743 14.9844 101.227 18.2539L20.7178 64.736C18.5354 58.8695 18.7784 58.7293 17.5703 53.2718Z" fill="#673DDE"/>
<path d="M17.5703 53.2717C43.3242 38.4025 67.204 24.9393 92.9583 10.0703C96.0621 12.4894 98.4741 14.9839 101.227 18.2533L20.7178 64.7353C19.75 62.0551 18.675 59.1123 17.5703 53.2717Z" fill="#673DDE"/>
<path d="M21.4182 27.4011L68.3064 0.330078C74.6862 0.973277 78.3555 2.10791 83.6312 4.4395L17.3281 42.7195C18.1499 35.7667 19.2379 32.391 21.4182 27.4011Z" fill="#673DDE"/>
</g>
<defs>
<filter id="filter0_d_4763_44" x="138.707" y="21.5908" width="399.273" height="68.0649" filterUnits="userSpaceOnUse" color-interpolation-filters="sRGB">
<feFlood flood-opacity="0" result="BackgroundImageFix"/>
<feColorMatrix in="SourceAlpha" type="matrix" values="0 0 0 0 0 0 0 0 0 0 0 0 0 0 0 0 0 0 127 0" result="hardAlpha"/>
<feOffset dx="2" dy="4"/>
<feGaussianBlur stdDeviation="2"/>
<feComposite in2="hardAlpha" operator="out"/>
<feColorMatrix type="matrix" values="0 0 0 0 0 0 0 0 0 0 0 0 0 0 0 0 0 0 0.1 0"/>
<feBlend mode="normal" in2="BackgroundImageFix" result="effect1_dropShadow_4763_44"/>
<feBlend mode="normal" in="SourceGraphic" in2="effect1_dropShadow_4763_44" result="shape"/>
</filter>
<filter id="filter1_d_4763_44" x="2.81641" y="0" width="126.73" height="102.134" filterUnits="userSpaceOnUse" color-interpolation-filters="sRGB">
<feFlood flood-opacity="0" result="BackgroundImageFix"/>
<feColorMatrix in="SourceAlpha" type="matrix" values="0 0 0 0 0 0 0 0 0 0 0 0 0 0 0 0 0 0 127 0" result="hardAlpha"/>
<feOffset dx="2" dy="4"/>
<feGaussianBlur stdDeviation="2"/>
<feColorMatrix type="matrix" values="0 0 0 0 0 0 0 0 0 0 0 0 0 0 0 0 0 0 0.12 0"/>
<feBlend mode="normal" in2="BackgroundImageFix" result="effect1_dropShadow_4763_44"/>
<feBlend mode="normal" in="SourceGraphic" in2="effect1_dropShadow_4763_44" result="shape"/>
</filter>
<filter id="filter2_d_4763_44" x="0.816406" y="4.8623" width="126.73" height="84.127" filterUnits="userSpaceOnUse" color-interpolation-filters="sRGB">
<feFlood flood-opacity="0" result="BackgroundImageFix"/>
<feColorMatrix in="SourceAlpha" type="matrix" values="0 0 0 0 0 0 0 0 0 0 0 0 0 0 0 0 0 0 127 0" result="hardAlpha"/>
<feOffset/>
<feGaussianBlur stdDeviation="2"/>
<feColorMatrix type="matrix" values="0 0 0 0 0 0 0 0 0 0 0 0 0 0 0 0 0 0 0.15 0"/>
<feBlend mode="normal" in2="BackgroundImageFix" result="effect1_dropShadow_4763_44"/>
<feBlend mode="normal" in="SourceGraphic" in2="effect1_dropShadow_4763_44" result="shape"/>
</filter>
</defs>
</svg>
