<svg width="130" height="103" viewBox="0 0 130 103" fill="none" xmlns="http://www.w3.org/2000/svg">
<g filter="url(#filter0_d_4763_30)">
<path d="M87.6353 87.8818C110.043 74.9448 117.657 46.1844 104.643 23.6427C91.6289 1.10133 62.9139 -6.68477 40.5065 6.25208C18.0992 19.1889 10.4847 47.95 23.4991 70.4912C36.5133 93.0328 65.2282 100.819 87.6353 87.8818Z" fill="#734CE3"/>
<path d="M59.745 93.3819L106.633 66.3108C109.266 60.4645 110.118 56.7195 110.737 50.9849L44.4336 89.2648C50.866 92.0297 54.3334 92.7754 59.745 93.3819Z" fill="#673DDE"/>
<path d="M35.4167 83.7824C61.1705 68.9138 84.7703 54.9647 110.524 40.0955C109.981 36.1979 109.027 32.8618 107.572 28.8428L27.0625 75.325C31.0518 80.1478 31.2947 80.0076 35.4167 83.7824Z" fill="#673DDE"/>
<path d="M35.4167 83.7823C61.1709 68.9131 84.7702 54.964 110.524 40.0948C109.981 36.1974 109.026 32.8612 107.572 28.8423L27.0625 75.3243C28.9 77.5029 30.9108 79.9048 35.4167 83.7823Z" fill="#673DDE"/>
<g filter="url(#filter1_d_4763_30)">
<path d="M114.342 14.3628C116.046 14.3747 116.938 14.601 117.366 14.7627C117.286 15.2312 117.026 16.1547 116.185 17.7058C114.607 20.613 111.666 24.373 107.338 28.7407C98.7425 37.4136 85.5559 47.6051 69.807 57.1296C54.0584 66.6536 39.0384 73.5198 27.5703 76.981C21.7952 78.7237 17.2162 79.5114 14.0238 79.4889C12.3206 79.4772 11.4274 79.2505 11 79.0889C11.08 78.6204 11.3395 77.6969 12.1813 76.1456C13.7589 73.2387 16.6996 69.4785 21.028 65.1112C29.6234 56.4384 42.8103 46.2462 58.5588 36.7223C74.3078 27.1978 89.3273 20.3316 100.795 16.8708C106.571 15.1279 111.15 14.3403 114.342 14.3628Z" stroke="#FEE233" stroke-width="11"/>
</g>
<path d="M104.643 23.6427C74.032 41.3161 86.4786 34.13 64.071 47.0669C41.6638 60.0038 54.1103 52.8178 23.4991 70.4912C10.4847 47.95 18.0993 19.1889 40.5063 6.25208C62.9141 -6.68477 91.6291 1.10133 104.643 23.6427Z" fill="#734CE3"/>
<path d="M17.5703 53.2718C43.3243 38.403 67.2042 24.9399 92.9579 10.0708C96.0623 12.4899 98.4743 14.9844 101.227 18.2539L20.7178 64.736C18.5354 58.8695 18.7784 58.7293 17.5703 53.2718Z" fill="#673DDE"/>
<path d="M17.5703 53.2717C43.3242 38.4025 67.204 24.9393 92.9583 10.0703C96.0621 12.4894 98.4741 14.9839 101.227 18.2533L20.7178 64.7353C19.75 62.0551 18.675 59.1124 17.5703 53.2717Z" fill="#673DDE"/>
<path d="M21.4182 27.4011L68.3064 0.330078C74.6862 0.973277 78.3555 2.10791 83.6312 4.4395L17.3281 42.7195C18.1499 35.7667 19.2379 32.391 21.4182 27.4011Z" fill="#673DDE"/>
</g>
<defs>
<filter id="filter0_d_4763_30" x="2.81641" y="0" width="126.73" height="102.134" filterUnits="userSpaceOnUse" color-interpolation-filters="sRGB">
<feFlood flood-opacity="0" result="BackgroundImageFix"/>
<feColorMatrix in="SourceAlpha" type="matrix" values="0 0 0 0 0 0 0 0 0 0 0 0 0 0 0 0 0 0 127 0" result="hardAlpha"/>
<feOffset dx="2" dy="4"/>
<feGaussianBlur stdDeviation="2"/>
<feColorMatrix type="matrix" values="0 0 0 0 0 0 0 0 0 0 0 0 0 0 0 0 0 0 0.12 0"/>
<feBlend mode="normal" in2="BackgroundImageFix" result="effect1_dropShadow_4763_30"/>
<feBlend mode="normal" in="SourceGraphic" in2="effect1_dropShadow_4763_30" result="shape"/>
</filter>
<filter id="filter1_d_4763_30" x="0.816406" y="4.8623" width="126.73" height="84.127" filterUnits="userSpaceOnUse" color-interpolation-filters="sRGB">
<feFlood flood-opacity="0" result="BackgroundImageFix"/>
<feColorMatrix in="SourceAlpha" type="matrix" values="0 0 0 0 0 0 0 0 0 0 0 0 0 0 0 0 0 0 127 0" result="hardAlpha"/>
<feOffset/>
<feGaussianBlur stdDeviation="2"/>
<feColorMatrix type="matrix" values="0 0 0 0 0 0 0 0 0 0 0 0 0 0 0 0 0 0 0.15 0"/>
<feBlend mode="normal" in2="BackgroundImageFix" result="effect1_dropShadow_4763_30"/>
<feBlend mode="normal" in="SourceGraphic" in2="effect1_dropShadow_4763_30" result="shape"/>
</filter>
</defs>
</svg>
