<svg width="404" height="332" viewBox="0 0 404 332" fill="none" xmlns="http://www.w3.org/2000/svg">
<g filter="url(#filter0_dd_4771_42)">
<path d="M243.082 226.373C285.503 201.881 299.918 147.434 275.281 104.759C250.643 62.085 196.281 47.3448 153.86 71.8361C111.44 96.3274 97.0248 150.776 121.663 193.45C146.301 236.125 200.662 250.864 243.082 226.373Z" fill="#734CE3"/>
<path d="M190.28 236.785L279.046 185.535C284.031 174.468 285.643 167.378 286.815 156.521L161.293 228.991C173.47 234.225 180.035 235.637 190.28 236.785Z" fill="#673DDE"/>
<path d="M144.226 218.612C192.982 190.464 237.659 164.056 286.415 135.907C285.387 128.528 283.58 122.212 280.826 114.604L128.41 202.601C135.962 211.731 136.422 211.466 144.226 218.612Z" fill="#673DDE"/>
<path d="M144.226 218.612C192.982 190.462 237.659 164.055 286.415 135.905C285.387 128.527 283.58 122.211 280.826 114.602L128.41 202.6C131.889 206.724 135.696 211.271 144.226 218.612Z" fill="#673DDE"/>
<g filter="url(#filter1_d_4771_42)">
<path d="M293.642 87.1913C296.866 87.2139 298.556 87.6423 299.366 87.9485C299.215 88.8354 298.723 90.5838 297.13 93.5201C294.143 99.0238 288.575 106.142 280.382 114.411C264.109 130.83 239.145 150.124 209.33 168.155C179.516 186.185 151.081 199.184 129.37 205.737C118.437 209.036 109.768 210.527 103.725 210.485C100.5 210.462 98.8091 210.033 98 209.727C98.1514 208.84 98.6427 207.092 100.236 204.155C103.223 198.652 108.79 191.533 116.984 183.265C133.257 166.847 158.221 147.551 188.036 129.521C217.851 111.49 246.285 98.4912 267.996 91.9393C278.93 88.6399 287.598 87.1488 293.642 87.1913Z" stroke="#FEE233" stroke-width="19"/>
</g>
<path d="M275.281 104.759C217.329 138.217 240.892 124.613 198.471 149.104C156.051 173.596 179.614 159.992 121.663 193.45C97.0248 150.776 111.44 96.3274 153.86 71.8361C196.281 47.3448 250.643 62.085 275.281 104.759Z" fill="#734CE3"/>
<path d="M110.438 160.851C159.194 132.702 204.402 107.215 253.157 79.0653C259.034 83.6449 263.6 88.3674 268.812 94.557L116.396 182.554C112.265 171.448 112.725 171.183 110.438 160.851Z" fill="#673DDE"/>
<path d="M110.438 160.851C159.193 132.701 204.401 107.213 253.158 79.0641C259.034 83.6437 263.6 88.3662 268.812 94.5557L116.396 182.553C114.564 177.479 112.529 171.908 110.438 160.851Z" fill="#673DDE"/>
<path d="M117.724 111.874L206.49 60.6251C218.568 61.8428 225.514 63.9908 235.502 68.4049L109.98 140.875C111.536 127.712 113.596 121.321 117.724 111.874Z" fill="#673DDE"/>
</g>
<g filter="url(#filter2_d_4771_42)">
<path d="M37.556 273.431C37.31 273.841 37.0367 274.155 36.736 274.374C36.4627 274.565 36.121 274.661 35.711 274.661C35.2463 274.661 34.6997 274.429 34.071 273.964C33.4423 273.499 32.6497 272.994 31.693 272.447C30.7637 271.873 29.6293 271.354 28.29 270.889C26.978 270.424 25.379 270.192 23.493 270.192C21.7163 270.192 20.1447 270.438 18.778 270.93C17.4387 271.395 16.3043 272.037 15.375 272.857C14.473 273.677 13.7897 274.647 13.325 275.768C12.8603 276.861 12.628 278.05 12.628 279.335C12.628 280.975 13.0243 282.342 13.817 283.435C14.637 284.501 15.703 285.417 17.015 286.182C18.3543 286.947 19.8577 287.617 21.525 288.191C23.2197 288.738 24.9417 289.312 26.691 289.913C28.4677 290.514 30.1897 291.198 31.857 291.963C33.5517 292.701 35.055 293.644 36.367 294.792C37.7063 295.94 38.7723 297.348 39.565 299.015C40.385 300.682 40.795 302.732 40.795 305.165C40.795 307.734 40.3577 310.153 39.483 312.422C38.6083 314.663 37.3237 316.618 35.629 318.285C33.9617 319.952 31.898 321.264 29.438 322.221C27.0053 323.178 24.231 323.656 21.115 323.656C17.2883 323.656 13.817 322.973 10.701 321.606C7.585 320.212 4.92 318.34 2.706 315.989L5.002 312.217C5.22067 311.916 5.48033 311.67 5.781 311.479C6.109 311.26 6.46433 311.151 6.847 311.151C7.20233 311.151 7.59867 311.301 8.036 311.602C8.50067 311.875 9.02 312.231 9.594 312.668C10.168 313.105 10.824 313.584 11.562 314.103C12.3 314.622 13.1337 315.101 14.063 315.538C15.0197 315.975 16.0993 316.344 17.302 316.645C18.5047 316.918 19.8577 317.055 21.361 317.055C23.247 317.055 24.928 316.795 26.404 316.276C27.88 315.757 29.1237 315.032 30.135 314.103C31.1737 313.146 31.9663 312.012 32.513 310.7C33.0597 309.388 33.333 307.926 33.333 306.313C33.333 304.536 32.923 303.088 32.103 301.967C31.3103 300.819 30.258 299.862 28.946 299.097C27.634 298.332 26.1307 297.689 24.436 297.17C22.7413 296.623 21.0193 296.077 19.27 295.53C17.5207 294.956 15.7987 294.3 14.104 293.562C12.4093 292.824 10.906 291.867 9.594 290.692C8.282 289.517 7.216 288.054 6.396 286.305C5.60333 284.528 5.207 282.342 5.207 279.745C5.207 277.668 5.60333 275.659 6.396 273.718C7.216 271.777 8.39133 270.055 9.922 268.552C11.48 267.049 13.3797 265.846 15.621 264.944C17.8897 264.042 20.4863 263.591 23.411 263.591C26.691 263.591 29.6703 264.11 32.349 265.149C35.055 266.188 37.433 267.691 39.483 269.659L37.556 273.431ZM157.567 270.93H138.543V323H130.63V270.93H111.565V264.247H157.567V270.93ZM217.927 293.644C217.927 298.045 217.23 302.09 215.836 305.78C214.442 309.443 212.474 312.6 209.932 315.251C207.39 317.902 204.328 319.966 200.748 321.442C197.194 322.891 193.258 323.615 188.94 323.615C184.621 323.615 180.685 322.891 177.132 321.442C173.578 319.966 170.531 317.902 167.989 315.251C165.447 312.6 163.479 309.443 162.085 305.78C160.691 302.09 159.994 298.045 159.994 293.644C159.994 289.243 160.691 285.212 162.085 281.549C163.479 277.859 165.447 274.688 167.989 272.037C170.531 269.358 173.578 267.281 177.132 265.805C180.685 264.329 184.621 263.591 188.94 263.591C193.258 263.591 197.194 264.329 200.748 265.805C204.328 267.281 207.39 269.358 209.932 272.037C212.474 274.688 214.442 277.859 215.836 281.549C217.23 285.212 217.927 289.243 217.927 293.644ZM209.768 293.644C209.768 290.036 209.276 286.797 208.292 283.927C207.308 281.057 205.914 278.638 204.11 276.67C202.306 274.675 200.119 273.144 197.55 272.078C194.98 271.012 192.11 270.479 188.94 270.479C185.796 270.479 182.94 271.012 180.371 272.078C177.801 273.144 175.601 274.675 173.77 276.67C171.966 278.638 170.572 281.057 169.588 283.927C168.604 286.797 168.112 290.036 168.112 293.644C168.112 297.252 168.604 300.491 169.588 303.361C170.572 306.204 171.966 308.623 173.77 310.618C175.601 312.586 177.801 314.103 180.371 315.169C182.94 316.208 185.796 316.727 188.94 316.727C192.11 316.727 194.98 316.208 197.55 315.169C200.119 314.103 202.306 312.586 204.11 310.618C205.914 308.623 207.308 306.204 208.292 303.361C209.276 300.491 209.768 297.252 209.768 293.644ZM283.591 293.644C283.591 298.045 282.894 302.09 281.5 305.78C280.106 309.443 278.138 312.6 275.596 315.251C273.054 317.902 269.992 319.966 266.412 321.442C262.858 322.891 258.922 323.615 254.604 323.615C250.285 323.615 246.349 322.891 242.796 321.442C239.242 319.966 236.195 317.902 233.653 315.251C231.111 312.6 229.143 309.443 227.749 305.78C226.355 302.09 225.658 298.045 225.658 293.644C225.658 289.243 226.355 285.212 227.749 281.549C229.143 277.859 231.111 274.688 233.653 272.037C236.195 269.358 239.242 267.281 242.796 265.805C246.349 264.329 250.285 263.591 254.604 263.591C258.922 263.591 262.858 264.329 266.412 265.805C269.992 267.281 273.054 269.358 275.596 272.037C278.138 274.688 280.106 277.859 281.5 281.549C282.894 285.212 283.591 289.243 283.591 293.644ZM275.432 293.644C275.432 290.036 274.94 286.797 273.956 283.927C272.972 281.057 271.578 278.638 269.774 276.67C267.97 274.675 265.783 273.144 263.214 272.078C260.644 271.012 257.774 270.479 254.604 270.479C251.46 270.479 248.604 271.012 246.035 272.078C243.465 273.144 241.265 274.675 239.434 276.67C237.63 278.638 236.236 281.057 235.252 283.927C234.268 286.797 233.776 290.036 233.776 293.644C233.776 297.252 234.268 300.491 235.252 303.361C236.236 306.204 237.63 308.623 239.434 310.618C241.265 312.586 243.465 314.103 246.035 315.169C248.604 316.208 251.46 316.727 254.604 316.727C257.774 316.727 260.644 316.208 263.214 315.169C265.783 314.103 267.97 312.586 269.774 310.618C271.578 308.623 272.972 306.204 273.956 303.361C274.94 300.491 275.432 297.252 275.432 293.644ZM311.248 292.701C313.544 292.701 315.566 292.428 317.316 291.881C319.092 291.307 320.568 290.514 321.744 289.503C322.946 288.464 323.848 287.234 324.45 285.813C325.051 284.392 325.352 282.82 325.352 281.098C325.352 277.599 324.204 274.962 321.908 273.185C319.612 271.408 316.168 270.52 311.576 270.52H302.884V292.701H311.248ZM338.39 323H331.338C329.889 323 328.823 322.44 328.14 321.319L312.888 300.327C312.423 299.671 311.917 299.206 311.371 298.933C310.851 298.632 310.031 298.482 308.911 298.482H302.884V323H294.971V264.247H311.576C315.293 264.247 318.505 264.63 321.211 265.395C323.917 266.133 326.144 267.213 327.894 268.634C329.67 270.055 330.982 271.777 331.83 273.8C332.677 275.795 333.101 278.037 333.101 280.524C333.101 282.601 332.773 284.542 332.117 286.346C331.461 288.15 330.504 289.776 329.247 291.225C328.017 292.646 326.5 293.863 324.696 294.874C322.919 295.885 320.896 296.651 318.628 297.17C319.639 297.744 320.514 298.578 321.252 299.671L338.39 323ZM393.982 264.247V323H390.005C389.376 323 388.843 322.891 388.406 322.672C387.996 322.453 387.586 322.084 387.176 321.565L353.187 277.285C353.241 277.968 353.282 278.638 353.31 279.294C353.337 279.95 353.351 280.565 353.351 281.139V323H346.381V264.247H350.481C350.836 264.247 351.137 264.274 351.383 264.329C351.629 264.356 351.847 264.425 352.039 264.534C352.23 264.616 352.421 264.753 352.613 264.944C352.804 265.108 353.009 265.327 353.228 265.6L387.217 309.839C387.162 309.128 387.107 308.445 387.053 307.789C387.025 307.106 387.012 306.463 387.012 305.862V264.247H393.982Z" fill="#EEEEEE"/>
<path d="M79.5 269.667L107.463 319.75H51.5368L79.5 269.667Z" stroke="#EEEEEE" stroke-width="6.5"/>
</g>
<defs>
<filter id="filter0_dd_4771_42" x="27.3203" y="0" width="342.723" height="298.209" filterUnits="userSpaceOnUse" color-interpolation-filters="sRGB">
<feFlood flood-opacity="0" result="BackgroundImageFix"/>
<feColorMatrix in="SourceAlpha" type="matrix" values="0 0 0 0 0 0 0 0 0 0 0 0 0 0 0 0 0 0 127 0" result="hardAlpha"/>
<feOffset/>
<feGaussianBlur stdDeviation="30"/>
<feColorMatrix type="matrix" values="0 0 0 0 0.45098 0 0 0 0 0.298039 0 0 0 0 0.890196 0 0 0 0.75 0"/>
<feBlend mode="normal" in2="BackgroundImageFix" result="effect1_dropShadow_4771_42"/>
<feColorMatrix in="SourceAlpha" type="matrix" values="0 0 0 0 0 0 0 0 0 0 0 0 0 0 0 0 0 0 127 0" result="hardAlpha"/>
<feOffset dx="2" dy="4"/>
<feGaussianBlur stdDeviation="2"/>
<feComposite in2="hardAlpha" operator="out"/>
<feColorMatrix type="matrix" values="0 0 0 0 0 0 0 0 0 0 0 0 0 0 0 0 0 0 0.25 0"/>
<feBlend mode="normal" in2="effect1_dropShadow_4771_42" result="effect2_dropShadow_4771_42"/>
<feBlend mode="normal" in="SourceGraphic" in2="effect2_dropShadow_4771_42" result="shape"/>
</filter>
<filter id="filter1_d_4771_42" x="83.3203" y="73.6904" width="230.723" height="150.295" filterUnits="userSpaceOnUse" color-interpolation-filters="sRGB">
<feFlood flood-opacity="0" result="BackgroundImageFix"/>
<feColorMatrix in="SourceAlpha" type="matrix" values="0 0 0 0 0 0 0 0 0 0 0 0 0 0 0 0 0 0 127 0" result="hardAlpha"/>
<feOffset/>
<feGaussianBlur stdDeviation="2"/>
<feColorMatrix type="matrix" values="0 0 0 0 0 0 0 0 0 0 0 0 0 0 0 0 0 0 0.15 0"/>
<feBlend mode="normal" in2="BackgroundImageFix" result="effect1_dropShadow_4771_42"/>
<feBlend mode="normal" in="SourceGraphic" in2="effect1_dropShadow_4771_42" result="shape"/>
</filter>
<filter id="filter2_d_4771_42" x="0.707031" y="263.591" width="399.273" height="68.0649" filterUnits="userSpaceOnUse" color-interpolation-filters="sRGB">
<feFlood flood-opacity="0" result="BackgroundImageFix"/>
<feColorMatrix in="SourceAlpha" type="matrix" values="0 0 0 0 0 0 0 0 0 0 0 0 0 0 0 0 0 0 127 0" result="hardAlpha"/>
<feOffset dx="2" dy="4"/>
<feGaussianBlur stdDeviation="2"/>
<feComposite in2="hardAlpha" operator="out"/>
<feColorMatrix type="matrix" values="0 0 0 0 0 0 0 0 0 0 0 0 0 0 0 0 0 0 0.15 0"/>
<feBlend mode="normal" in2="BackgroundImageFix" result="effect1_dropShadow_4771_42"/>
<feBlend mode="normal" in="SourceGraphic" in2="effect1_dropShadow_4771_42" result="shape"/>
</filter>
</defs>
</svg>
