<svg width="16" height="16" viewBox="0 0 16 16" fill="none" xmlns="http://www.w3.org/2000/svg">
<path d="M15.9995 8.00008V13.143C15.9995 13.9007 15.6986 14.6275 15.1627 15.1632C14.627 15.6991 13.9002 16 13.1425 16H2.85714C2.09927 16 1.37262 15.6991 0.836911 15.1632C0.301042 14.6275 0 13.9007 0 13.143V2.85757C0 2.09968 0.301038 1.37304 0.836911 0.837318C1.37262 0.301444 2.09927 0.00039953 2.85714 0.00039953H8H7.99985C8.20406 0.00039953 8.39274 0.109292 8.49467 0.286205C8.59678 0.462967 8.59678 0.680764 8.49467 0.857523C8.39272 1.03428 8.20404 1.14333 7.99985 1.14333H2.85738C2.40267 1.14333 1.96664 1.32386 1.64522 1.64542C1.32367 1.96682 1.14313 2.40284 1.14313 2.85759V13.143C1.14313 13.5977 1.32366 14.0338 1.64522 14.3552C1.96661 14.6767 2.40263 14.8573 2.85738 14.8573H13.1427C13.5974 14.8573 14.0334 14.6767 14.3549 14.3552C14.6764 14.0338 14.8569 13.5978 14.8569 13.143V8.00011C14.8569 7.79604 14.9658 7.60736 15.1426 7.50528C15.3195 7.40332 15.5373 7.40332 15.7141 7.50528C15.8908 7.60738 15.9997 7.79606 15.9997 8.00011L15.9995 8.00008ZM11.4284 1.14327H14.0512L7.59444 7.59429C7.4863 7.70167 7.42552 7.84767 7.42552 8.00001C7.42552 8.15249 7.4863 8.29848 7.59444 8.40573C7.70182 8.51402 7.84782 8.5748 8.00015 8.5748C8.15263 8.5748 8.29863 8.51402 8.40586 8.40573L14.8572 1.95432V4.57137C14.8572 4.72294 14.9174 4.86833 15.0246 4.97542C15.1317 5.08266 15.2771 5.14283 15.4287 5.14283C15.5803 5.14283 15.7255 5.08266 15.8327 4.97542C15.9398 4.86834 16 4.72295 16 4.57137V0.571331V0.571482C16.0009 0.419604 15.9413 0.273611 15.8344 0.165764C15.7265 0.058833 15.5806 -0.00089338 15.4287 1.01031e-05H11.4287C11.2246 1.01031e-05 11.0359 0.108903 10.9339 0.285816C10.8317 0.462578 10.8317 0.680375 10.9339 0.857133C11.036 1.0339 11.2246 1.14294 11.4287 1.14294L11.4284 1.14327Z" fill="#444444"/>
</svg>
