<svg width="22" height="22" viewBox="0 0 22 22" fill="none" xmlns="http://www.w3.org/2000/svg">
    <path d="M20.4673 4.24569L17.7401 1.51613C17.0529 0.828396 15.8575 0.827075 15.1677 1.51745L2.95013 13.8556C2.89597 13.9102 2.85689 13.9773 2.83559 14.0511L1.01745 20.4201C0.972148 20.5787 1.01655 20.7498 1.13331 20.8666C1.21986 20.9532 1.33573 20.9999 1.4547 20.9999C1.49642 20.9999 1.53861 20.9941 1.57943 20.9826L7.94301 19.1628C8.01669 19.1415 8.08372 19.1024 8.13831 19.0482L20.4673 6.8189C20.8109 6.47505 21 6.01832 21 5.53231C21 5.04631 20.8109 4.58954 20.4673 4.24569ZM13.187 4.82391L14.8601 6.49708L6.12457 15.2327L5.49764 13.9784C5.42039 13.8244 5.26327 13.7272 5.09103 13.7272H4.36311L13.187 4.82391ZM2.11653 19.8835L2.7086 17.8109L4.18907 19.2914L2.11653 19.8835ZM7.36373 18.3845L5.18895 19.0057L2.99424 16.811L3.6155 14.6362H4.80999L5.59344 16.2032C5.63737 16.2911 5.70884 16.3625 5.79675 16.4065L7.36368 17.1899V18.3845H7.36373ZM8.27284 17.6369V16.909C8.27284 16.7367 8.17564 16.5796 8.02159 16.5024L6.76731 15.8754L15.5029 7.13986L17.176 8.81303L8.27284 17.6369ZM19.8259 6.18681L17.8217 8.17315L13.8268 4.17827L15.8118 2.1754C16.1554 1.83181 16.7537 1.83181 17.0973 2.1754L19.8246 4.90266C19.9964 5.07443 20.0909 5.30259 20.0909 5.5454C20.0909 5.78821 19.9964 6.01636 19.8259 6.18681Z" fill="#EEEEEE" stroke="white" stroke-width="0.5"/>
</svg>
