<svg width="200" height="141" viewBox="0 0 200 141" fill="none" xmlns="http://www.w3.org/2000/svg">
    <path d="M195.879 21.9115C193.574 13.3438 186.819 6.59024 178.252 4.28312C162.602 0 99.9981 0 99.9981 0C99.9981 0 37.3961 0 21.7452 4.11986C13.3438 6.42545 6.42392 13.3453 4.11833 21.9115C0 37.5609 0 70.0162 0 70.0162C0 70.0162 0 102.635 4.11833 118.121C6.42545 126.687 13.179 133.442 21.7467 135.749C37.5609 140.032 99.9996 140.032 99.9996 140.032C99.9996 140.032 162.602 140.032 178.252 135.913C186.82 133.607 193.574 126.852 195.881 118.286C199.999 102.635 199.999 70.181 199.999 70.181C199.999 70.181 200.164 37.5609 195.879 21.9115Z" fill="#FF0000"/>
    <path d="M80.0654 99.9998L132.124 70.0162L80.0654 40.0327V99.9998Z" fill="white"/>
</svg>
