<svg width="200" height="200" viewBox="0 0 200 200" fill="none" xmlns="http://www.w3.org/2000/svg">
    <path d="M200 0H0V200H200V0Z" fill="#44678D"/>
    <path d="M51.8111 60.8649C56.6043 72.7017 62.6789 83.8618 70.6797 93.8804C71.7409 95.2136 73.0785 96.399 74.4877 97.364C76.5459 98.7776 78.4878 98.2808 79.3247 95.9263C80.2099 93.4556 81.0222 88.4483 81.0705 85.8537C81.2026 79.0743 81.0507 74.6313 80.6865 67.8602C80.4504 63.5235 78.9087 59.7155 72.5295 58.5662C70.5595 58.2098 70.3765 56.5882 71.6421 54.9706C74.277 51.6028 77.9476 51.0661 81.928 50.8537C88.3792 50.5053 94.8541 50.7896 101.313 50.8537C103.944 50.8778 106.591 51.0898 109.182 51.6546C112.561 52.3915 114.371 54.7622 114.928 58.0615C115.217 59.7634 115.365 61.5131 115.324 63.2351C115.156 70.6351 114.8 78.0311 114.716 85.4272C114.68 88.3302 114.892 91.3056 115.513 94.1327C116.382 98.0728 119.064 99.062 121.808 96.2151C125.291 92.5994 128.363 88.5308 131.246 84.3985C136.483 76.8822 140.395 68.6335 143.763 60.1285C145.505 55.7399 146.839 54.7867 151.559 54.7749C160.433 54.7547 169.307 54.7468 178.18 54.7749C179.754 54.7828 181.4 54.9311 182.885 55.4038C185.296 56.1726 186.253 58.1387 185.688 60.6336C184.371 66.48 181.212 71.4492 177.828 76.2266C172.398 83.8907 166.708 91.371 161.15 98.947C160.441 99.912 159.817 100.941 159.236 101.986C157.157 105.742 157.302 107.848 160.333 110.976C165.158 115.953 170.324 120.61 174.997 125.723C178.393 129.443 181.536 133.48 184.227 137.728C187.631 143.102 185.528 148.163 179.17 149.064C175.169 149.629 155.629 149.069 154.619 149.064C149.366 149.041 144.761 147.218 141.052 143.651C136.928 139.678 133.18 135.322 129.22 131.177C128.026 129.928 126.753 128.73 125.38 127.685C122.14 125.214 118.96 125.763 117.447 129.567C116.153 132.835 115.036 141.416 114.984 142.149C114.712 145.981 112.273 148.424 107.98 148.66C95.5869 149.332 83.5777 147.951 72.3899 141.957C62.9076 136.879 55.3356 129.699 48.7764 121.326C38.3571 108.027 30.1273 93.4086 22.6136 78.3607C22.2296 77.5914 14.6194 61.3976 14.4149 60.6327C13.7351 58.0716 14.3693 55.6249 16.5333 54.7828C17.8823 54.2579 42.9735 54.781 43.3908 54.8034C47.3945 55.0202 50.1246 56.7094 51.8111 60.8649Z" fill="white"/>
</svg>
