<svg fill="#FEE233" xmlns="http://www.w3.org/2000/svg" height="384pt" viewBox="0 -16 384 384" width="384pt">
    <path d="m336 64v-16c0-26.472656-21.527344-48-48-48h-240c-26.472656 0-48 21.527344-48 48v256c0 26.472656 21.527344 48 48 48h288c26.472656 0 48-21.527344 48-48v-192c0-26.472656-21.527344-48-48-48zm-288-32h240c8.824219 0 16 7.175781 16 16v16h-256c-8.824219 0-16-7.175781-16-16s7.175781-16 16-16zm288 288h-288c-8.824219 0-16-7.175781-16-16v-210.742188c5.007812 1.773438 10.390625 2.742188 16 2.742188h288c8.824219 0 16 7.175781 16 16v40h-88c-30.878906 0-56 25.128906-56 56s25.121094 56 56 56h88v40c0 8.824219-7.175781 16-16 16zm16-88h-37.441406c3.519531-7.433594 5.441406-15.566406 5.441406-24 0-8.59375-2.007812-16.710938-5.480469-24h37.480469zm-112-24c0-13.230469 10.769531-24 24-24s24 10.769531 24 24c0 6.40625-2.503906 12.472656-6.9375 16.945312-4.589844 4.550782-10.65625 7.054688-17.0625 7.054688-13.230469 0-24-10.769531-24-24zm0 0"/>
</svg>