<svg width="12" height="15" viewBox="0 0 12 15" fill="none" xmlns="http://www.w3.org/2000/svg">
<path fill-rule="evenodd" clip-rule="evenodd" d="M0.257812 1.64461V1.06082C0.281105 0.471 0.780355 0 1.39364 0H7.16187V3.29142C7.16187 3.90068 7.54829 4.29688 8.17455 4.29688H10.9972V13.7113C10.9972 14.3184 10.4919 14.8065 9.86851 14.8065C9.8685 14.8077 9.86849 14.8089 9.86848 14.8101H9.30216C9.30216 14.8096 9.30216 14.8091 9.30216 14.8086L1.38742 14.8059C0.761725 14.8059 0.258682 14.3129 0.258682 13.7053V1.64461L0.257812 1.64461ZM7.50172 0L7.49781 3.29142C7.49781 3.59523 7.86933 4 8.17455 4H11.0017L7.50172 0Z" fill="#734CE3"/>
</svg>
