<svg width="18" height="15" viewBox="0 0 18 15" fill="none" xmlns="http://www.w3.org/2000/svg">
<path d="M0.264197 13.1442C1.9482 14.2128 3.90806 14.7774 5.93159 14.7774C8.89488 14.7774 11.6104 13.6391 13.5786 11.5723C15.4619 9.59427 16.4979 6.9364 16.4464 4.23912C17.1603 3.62827 18 2.4619 18 1.32509C18 0.889311 17.5271 0.612687 17.1436 0.834744C16.4729 1.22884 15.8613 1.33191 15.2322 1.15533C13.9476 -0.0966845 12.0355 -0.360425 10.4243 0.5081C9.01614 1.26598 8.23326 2.65289 8.30374 4.16864C5.92477 3.87837 3.72693 2.68548 2.19451 0.831713C1.94289 0.529321 1.46543 0.564941 1.26535 0.9075C0.52718 2.17164 0.534759 3.63661 1.17668 4.81965C0.871256 4.87346 0.682545 5.13038 0.682545 5.40852C0.682545 6.59763 1.2176 7.69049 2.07931 8.43624C1.91864 8.59084 1.86559 8.82048 1.9338 9.0251C2.31274 10.1634 3.17065 11.0532 4.24304 11.4988C3.07667 12.0558 1.78677 12.2415 0.638588 12.1006C0.0444135 12.0202 -0.248884 12.819 0.264197 13.1442V13.1442ZM6.08696 11.6936C6.51212 11.3669 6.28628 10.6864 5.75273 10.675C4.81297 10.6553 3.95732 10.1922 3.42454 9.46391C3.68146 9.44724 3.94747 9.40783 4.2006 9.33962C4.77735 9.1835 4.75006 8.35135 4.16422 8.23388C3.10093 8.02016 2.2665 7.24561 1.9535 6.24825C2.23922 6.31873 2.53025 6.35814 2.82051 6.36345C3.39574 6.36648 3.61325 5.62906 3.14412 5.32061C2.08689 4.62412 1.63595 3.39409 1.93456 2.23757C3.78074 4.10801 6.28552 5.23497 8.93505 5.36229C9.31475 5.38579 9.59971 5.02883 9.51634 4.66732C9.15635 3.10685 10.0279 2.01324 10.9639 1.50925C11.89 1.00906 13.377 0.852933 14.5168 2.04886C14.8556 2.40582 15.9985 2.41946 16.5797 2.2838C16.319 2.77491 15.9181 3.241 15.543 3.50322C15.3831 3.61539 15.2914 3.80183 15.3012 3.9966C15.4232 6.48622 14.4956 8.96144 12.7563 10.7872C11.0041 12.6265 8.58112 13.6398 5.93235 13.6398C4.8789 13.6398 3.84592 13.4685 2.86977 13.1381C4.0369 12.9122 5.14567 12.4181 6.08696 11.6936V11.6936Z" fill="#EEEEEE"/>
</svg>
