<svg width="15" height="17" viewBox="0 0 15 17" fill="none" xmlns="http://www.w3.org/2000/svg">
<path fill-rule="evenodd" clip-rule="evenodd" d="M13.2266 5.82793V6.79969C14.1388 6.79969 14.6762 7.81117 14.6761 8.66385V11.1429C14.6761 11.9163 14.1407 12.4518 13.2878 12.5112L12.9111 13.0666C12.2402 13.9587 11.2255 14.5185 10.125 14.6175V13.8432C10.9078 13.7645 11.5071 13.4027 11.8294 12.628C11.8438 12.6161 11.8556 12.5922 11.86 12.5509V6.79969V5.82793C11.86 3.14449 10.1835 1.3 7.5 1.3C4.81656 1.3 3.01496 3.14449 3.01496 5.82793V6.79969V12.5509H1.54741C1.54057 12.5509 1.53378 12.5508 1.52695 12.5506C0.661961 12.5286 -0.021463 11.8096 0.000515597 10.9446V8.46562C0.000515597 7.57316 0.699197 6.79969 1.57181 6.79969V5.82793C1.57181 2.70637 4.31587 0 7.43748 0C10.5591 0 13.2266 2.70637 13.2266 5.82793ZM11.86 12.5509C11.8501 12.577 11.8399 12.6027 11.8294 12.628C11.7716 12.6758 11.672 12.5315 11.8376 12.5493C11.845 12.5501 11.8525 12.5506 11.86 12.5509ZM9.75 13.8233C9.51725 12.7817 8.49192 12.1142 7.44169 12.3284C6.53313 12.5137 5.87806 13.3094 5.87074 14.2367C5.88159 15.3242 6.76635 16.2001 7.85393 16.2C8.39231 16.1913 8.90551 15.9703 9.28181 15.5852C9.52477 15.3364 9.68759 15.0209 9.75 14.6795V13.8233Z" fill="#734CE3"/>
</svg>
