<svg width="14" height="15" viewBox="0 0 14 15" fill="none" xmlns="http://www.w3.org/2000/svg">
<path d="M2.37069 11.7188H13.0388C13.4323 11.7188 13.75 11.4047 13.75 11.0156V0.703125C13.75 0.314063 13.4323 0 13.0388 0H2.37069C1.06207 0 0 1.05 0 2.34375V12.6562C0 13.95 1.06207 15 2.37069 15H13.0388C13.4323 15 13.75 14.6859 13.75 14.2969C13.75 13.9078 13.4323 13.5938 13.0388 13.5938H2.37069C1.84914 13.5938 1.42241 13.1719 1.42241 12.6562C1.42241 12.1406 1.84914 11.7188 2.37069 11.7188ZM7.37759 9.40312C7.24483 9.53437 7.05992 9.60938 6.875 9.60938C6.69009 9.60938 6.50517 9.53437 6.37241 9.40312C6.23966 9.27187 6.16379 9.09375 6.16379 8.90625C6.16379 8.72344 6.23966 8.54063 6.37241 8.40938C6.63793 8.14688 7.11207 8.14688 7.37759 8.40938C7.51035 8.54063 7.58621 8.72344 7.58621 8.90625C7.58621 9.09375 7.51035 9.27187 7.37759 9.40312ZM5.50474 2.60156C5.98836 2.20313 6.62845 2.03438 7.25431 2.14219C8.11724 2.29219 8.82371 2.99062 8.97543 3.84375C9.1319 4.73906 8.70517 5.62969 7.90388 6.06562C7.70948 6.17344 7.58621 6.4125 7.58621 6.68438V6.79688C7.58621 7.18594 7.26854 7.5 6.875 7.5C6.48147 7.5 6.16379 7.18594 6.16379 6.79688V6.68438C6.16379 5.89688 6.56681 5.18906 7.21638 4.8375C7.425 4.725 7.63836 4.45781 7.57198 4.0875C7.52457 3.81094 7.2875 3.57656 7.0125 3.52969C6.78966 3.4875 6.58104 3.54375 6.41983 3.67969C6.25862 3.81563 6.16379 4.0125 6.16379 4.21875C6.16379 4.60781 5.84612 4.92188 5.45259 4.92188C5.05905 4.92188 4.74138 4.60781 4.74138 4.21875C4.74138 3.59531 5.02112 3.00469 5.50474 2.60156Z" fill="#734CE3"/>
<line x1="2.375" y1="12.6548" x2="13.075" y2="12.6548" stroke="#734CE3" stroke-width="1.25" stroke-linecap="round"/>
</svg>
