<svg width="18" height="17" viewBox="0 0 18 17" fill="none" xmlns="http://www.w3.org/2000/svg">
<path fill-rule="evenodd" clip-rule="evenodd" d="M9 12H10C10.5508 12 11 12.4478 11 13V16C11 16.5522 11.4492 17 12 17H14.5C15.0508 17 15.5 16.5522 15.5 16V9.9707C15.5 9.43457 15.9336 9 16.4688 9C17.3594 9 17.7812 7.90283 17.1211 7.30811L9.66797 0.602051C9.47656 0.430664 9.23828 0.345215 9 0.345215V12Z" fill="#734CE3"/>
<path fill-rule="evenodd" clip-rule="evenodd" d="M9 11.9999H8C7.44772 11.9999 7 12.4476 7 12.9999V15.9999C7 16.5521 6.55228 16.9999 6 16.9999H3.5C2.94772 16.9999 2.5 16.5521 2.5 15.9999V9.97047C2.5 9.43441 2.06544 8.99985 1.52938 8.99985C0.639831 8.99985 0.218876 7.90286 0.880076 7.30778L8.33104 0.601921C8.52119 0.430784 8.76059 0.345215 9 0.345215V11.9999Z" fill="#734CE3"/>
<rect x="6" y="15" width="1" height="2" fill="#734CE3"/>
<path d="M7.375 13.075C7.375 12.6884 7.6884 12.375 8.075 12.375H9.925C10.3116 12.375 10.625 12.6884 10.625 13.075V17H7.375V13.075Z" fill="#734CE3"/>
<rect x="11" y="15" width="1" height="2" fill="#734CE3"/>
</svg>
