<svg width="20" height="17" viewBox="0 0 20 17" fill="none" xmlns="http://www.w3.org/2000/svg">
<path d="M0.293553 14.6046C2.16466 15.792 4.34229 16.4193 6.59066 16.4193C9.8832 16.4193 12.9004 15.1545 15.0873 12.8581C17.1799 10.6603 18.331 7.70711 18.2737 4.71014C19.067 4.03142 20 2.73545 20 1.47232C20 0.988124 19.4745 0.680763 19.0484 0.927494C18.3032 1.36538 17.6236 1.4799 16.9247 1.2837C15.4974 -0.107427 13.3728 -0.400473 11.5825 0.564556C10.0179 1.40664 9.14806 2.94765 9.22638 4.63182C6.58308 4.3093 4.14103 2.98386 2.43834 0.924126C2.15877 0.588134 1.62826 0.627712 1.40595 1.00833C0.585756 2.41293 0.594177 4.04068 1.30742 5.35517C0.968062 5.41496 0.758383 5.70043 0.758383 6.00947C0.758383 7.3307 1.35289 8.54499 2.31034 9.3736C2.13182 9.54538 2.07288 9.80053 2.14866 10.0279C2.56971 11.2927 3.52294 12.2813 4.71449 12.7765C3.41853 13.3954 1.9853 13.6017 0.709542 13.4451C0.0493484 13.3558 -0.276538 14.2434 0.293553 14.6046V14.6046ZM6.76328 12.9929C7.23569 12.6299 6.98475 11.8737 6.39192 11.8611C5.34774 11.8392 4.39703 11.3247 3.80504 10.5155C4.09051 10.4969 4.38608 10.4531 4.66734 10.3774C5.30816 10.2039 5.27785 9.27928 4.62692 9.14876C3.44547 8.91129 2.51834 8.05068 2.17056 6.9425C2.48802 7.02081 2.81138 7.0646 3.1339 7.0705C3.77304 7.07387 4.01472 6.25452 3.49347 5.91179C2.31876 5.13791 1.81772 3.77121 2.14951 2.48619C4.20082 4.56445 6.98391 5.81663 9.92783 5.9581C10.3497 5.98421 10.6663 5.58759 10.5737 5.18591C10.1737 3.45206 11.1421 2.23693 12.1821 1.67695C13.2111 1.12117 14.8633 0.947704 16.1298 2.27651C16.5062 2.67313 17.7761 2.68829 18.4219 2.53756C18.1323 3.08323 17.6868 3.60111 17.27 3.89247C17.0923 4.0171 16.9904 4.22425 17.0013 4.44067C17.1369 7.20691 16.1062 9.95716 14.1736 11.9857C12.2267 14.0295 9.53458 15.1553 6.5915 15.1553C5.421 15.1553 4.27324 14.965 3.18864 14.5979C4.48545 14.3469 5.71742 13.7979 6.76328 12.9929V12.9929Z" fill="#EEEEEE"/>
</svg>
