<svg width="20" height="20" viewBox="0 0 20 20" fill="none" xmlns="http://www.w3.org/2000/svg">
<path d="M19.145 0.0660146L0.323013 9.51607C0.133087 9.61142 0.00968554 9.80213 0.000544711 10.0144C-0.00859612 10.2267 0.0978516 10.4273 0.278871 10.5387L4.68741 13.2516V19.4145C4.68741 19.6667 4.8487 19.8905 5.08789 19.9703C5.32711 20.0501 5.59044 19.9679 5.74185 19.7663L8.7548 15.7546L15.5129 19.9135C15.677 20.0144 15.8802 20.0283 16.0564 19.9506C16.2326 19.8729 16.3594 19.7135 16.3956 19.5243L19.9887 0.699271C19.9899 0.693021 19.9911 0.686771 19.9921 0.680482C20.0689 0.205979 19.5711 -0.153522 19.145 0.0660146ZM5.24262 12.2174L1.78828 10.0916L15.5742 3.17007L5.24262 12.2174ZM5.85919 17.6587V13.2351L15.5643 4.73639C15.3512 5.02019 6.11303 17.3207 5.85919 17.6587ZM15.4036 18.4703L9.46146 14.8136L18.3642 2.95979L15.4036 18.4703Z" fill="#EEEEEE"/>
</svg>
