<svg width="16" height="16" viewBox="0 0 16 16" fill="none" xmlns="http://www.w3.org/2000/svg">
<path d="M9.64843 12.5981H6.35432C5.96447 12.5981 5.64844 12.9366 5.64844 13.354C5.64844 13.7715 5.96447 14.1099 6.35432 14.1099H9.64843C10.0383 14.1099 10.3543 13.7715 10.3543 13.354C10.3543 12.9366 10.0383 12.5981 9.64843 12.5981Z" fill="#734CE3"/>
<path fill-rule="evenodd" clip-rule="evenodd" d="M15.7673 2.00472C15.8903 2.18965 15.9651 2.40532 15.9906 2.64599C16.0168 2.89696 15.9883 3.17704 15.9051 3.47858C15.8924 3.52544 15.5803 4.6408 14.7718 5.93551C14.2966 6.6969 13.7463 7.36376 13.1367 7.91815C12.6235 8.38476 12.0674 8.77126 11.4757 9.07383C11.3053 9.16098 11.159 9.29452 11.0515 9.4607C10.6837 10.0284 10.2722 10.4958 9.82831 10.8411C9.48205 11.1105 9.24681 11.5522 9.35903 11.9945C9.37585 12.0608 9.39381 12.1278 9.41295 12.1948H6.58681C6.60592 12.1279 6.62385 12.0611 6.64066 11.9949C6.753 11.5525 6.51777 11.1104 6.17134 10.8408C5.72761 10.4955 5.31629 10.0283 4.94865 9.46075C4.84099 9.29453 4.69476 9.16098 4.52429 9.07383C3.93249 8.77126 3.37639 8.38476 2.86335 7.91815C2.25354 7.36397 1.70345 6.6969 1.22785 5.93551C0.419354 4.6408 0.10764 3.52544 0.0945965 3.47858C0.0118004 3.17704 -0.0169325 2.89696 0.00953203 2.64599C0.0348623 2.40554 0.109908 2.18965 0.23278 2.00472C0.40858 1.74032 0.68211 1.54383 1.02426 1.43672C1.26339 1.3618 1.4579 1.35457 1.47926 1.35395H1.48795H2.47664C2.84663 1.35395 3.14989 1.03547 3.1827 0.640836C3.21357 0.269706 3.50845 0 3.8564 0H12.1434C12.4915 0 12.7863 0.269708 12.8173 0.640836C12.8501 1.03547 13.1534 1.35395 13.5235 1.35395H14.5119H14.5208C14.542 1.35457 14.7364 1.3618 14.9756 1.43672C15.3177 1.54383 15.5915 1.74032 15.7673 2.00472ZM6.45566 12.598C6.39151 12.7708 6.31821 12.9366 6.23468 13.085C6.10415 13.3168 5.85428 13.4219 5.60143 13.4219H4.55198C4.11718 13.4219 3.7647 13.8017 3.7647 14.2673C3.7647 14.7355 4.11919 15.1176 4.55648 15.1176H7.99993H11.4435C11.8807 15.1176 12.2353 14.7355 12.2353 14.2673C12.2353 13.8018 11.8828 13.4219 11.4481 13.4219H10.3985C10.1456 13.4219 9.8957 13.3168 9.76516 13.085C9.6816 12.9366 9.60827 12.7709 9.54411 12.598H6.45566ZM0.786644 3.25176C0.789291 3.26167 1.08664 4.31573 1.83842 5.51261C1.89042 5.59541 1.94321 5.67682 1.99675 5.75683C2.53556 6.56186 3.4856 5.84667 3.33128 4.8701C3.24381 4.31653 3.18222 3.7413 3.14923 3.1496C3.11826 2.59408 2.69998 2.14259 2.18028 2.14259H1.49476C1.35771 2.14899 0.981156 2.21895 0.816322 2.46993C0.701958 2.64413 0.692128 2.90708 0.786644 3.25176ZM15.2134 3.25197L15.2134 3.25176C15.3079 2.90708 15.2981 2.64413 15.1839 2.47014C15.0191 2.21917 14.6425 2.14919 14.5055 2.14279H13.8198C13.3002 2.14279 12.882 2.59423 12.851 3.14972C12.818 3.74083 12.7565 4.31554 12.6692 4.86861C12.5149 5.84534 13.4655 6.56066 14.0042 5.75541C14.0575 5.67585 14.1099 5.59492 14.1617 5.51261C14.9097 4.32107 15.2078 3.27145 15.2134 3.25197Z" fill="#734CE3"/>
</svg>
