<svg width="128" height="16" viewBox="0 0 128 16" fill="none" xmlns="http://www.w3.org/2000/svg">
<line y1="-2" x2="120" y2="-2" transform="matrix(1 0 0 -1 4 4)" stroke="#232323" stroke-width="4"/>
<line y1="-1" x2="28" y2="-1" transform="matrix(1 0 0 -1 24 12)" stroke="#232323" stroke-width="2"/>
<line y1="-1" x2="28" y2="-1" transform="matrix(1 0 0 -1 76 12)" stroke="#232323" stroke-width="2"/>
<line y1="-1" x2="6" y2="-1" transform="matrix(1 0 0 -1 56 12)" stroke="#232323" stroke-width="2"/>
<line y1="-1" x2="6" y2="-1" transform="matrix(1 0 0 -1 66 12)" stroke="#232323" stroke-width="2"/>
<line y1="-1" x2="12" y2="-1" transform="matrix(0.707107 0.707107 0.707107 -0.707107 16.9492 4.09961)" stroke="#232323" stroke-width="2"/>
<line x1="103.293" y1="13.2929" x2="111.778" y2="4.80761" stroke="#232323" stroke-width="2"/>
<circle r="4" transform="matrix(1 0 0 -1 4 4)" fill="#232323"/>
<circle r="2.5" transform="matrix(1 0 0 -1 64 13)" stroke="#232323"/>
<circle r="2.5" transform="matrix(1 0 0 -1 74 13)" stroke="#232323"/>
<circle r="2.5" transform="matrix(1 0 0 -1 54 13)" stroke="#232323"/>
<circle r="4" transform="matrix(1 0 0 -1 124 4)" fill="#232323"/>
</svg>
