<svg width="44" height="46" viewBox="0 0 48 50" fill="none" xmlns="http://www.w3.org/2000/svg">
<path fill-rule="evenodd" clip-rule="evenodd" d="M0 8.69792V43.4771H11.9771V50H18.5167L25.0458 43.475H34.8479L47.9187 30.4375V0H3.26458L0 8.69792ZM7.62083 4.34375H43.5625V28.2583L35.9375 35.8667H23.9562L17.4271 42.3812V35.8667H7.62083V4.34375ZM19.6059 13.0457H23.9601V26.0874H19.6059V13.0457ZM35.9318 13.0457H31.5755V26.0874H35.9318V13.0457Z" fill="white"/>
<rect x="5.20703" y="1.04102" width="38.5417" height="30.2083" fill="white"/>
<rect x="10.418" y="7.29102" width="30.2083" height="29.1667" fill="white"/>
<rect x="5.20703" y="1.04102" width="28.125" height="41.6667" fill="white"/>
<path d="M0 8.69792V43.4771H11.9771V50H18.5167L25.0458 43.475H34.8479L47.9187 30.4375V0H3.26458L0 8.69792ZM7.62083 4.34375H43.5625V28.2583L35.9375 35.8667H23.9562L17.4271 42.3812V35.8667H7.62083V4.34375Z" fill="#673AB7"/>
<path d="M19.6055 13.0459H23.9596V26.0876H19.6055V13.0459Z" fill="#673AB7"/>
<path d="M31.5762 13.0459H35.9324V26.0876H31.5762V13.0459Z" fill="#673AB7"/>
</svg>
