<svg width="200" height="200" viewBox="0 0 200 200" fill="none" xmlns="http://www.w3.org/2000/svg">
<rect width="200" height="200" rx="15" fill="#1DA1F2"/>
<path d="M76.8008 150.8C123.951 150.8 149.751 111.7 149.751 77.8502C149.751 76.7502 149.751 75.6502 149.701 74.5502C154.701 70.9502 159.051 66.4002 162.501 61.2502C157.901 63.3002 152.951 64.6502 147.751 65.3002C153.051 62.1502 157.101 57.1002 159.051 51.1002C154.101 54.0502 148.601 56.1502 142.751 57.3002C138.051 52.3002 131.401 49.2002 124.051 49.2002C109.901 49.2002 98.4008 60.7002 98.4008 74.8502C98.4008 76.8502 98.6508 78.8002 99.0508 80.7002C77.7508 79.6502 58.8508 69.4002 46.2008 53.9002C44.0008 57.7002 42.7508 62.1002 42.7508 66.8002C42.7508 75.7002 47.3008 83.5502 54.1508 88.1502C49.9508 88.0002 46.0008 86.8502 42.5508 84.9502C42.5508 85.0502 42.5508 85.1502 42.5508 85.3002C42.5508 97.7002 51.4008 108.1 63.1008 110.45C60.9508 111.05 58.7008 111.35 56.3508 111.35C54.7008 111.35 53.1008 111.2 51.5508 110.9C54.8008 121.1 64.3008 128.5 75.5008 128.7C66.7008 135.6 55.6508 139.7 43.6508 139.7C41.6008 139.7 39.5508 139.6 37.5508 139.35C48.8508 146.55 62.3508 150.8 76.8008 150.8Z" fill="white"/>
</svg>
