<svg width="200" height="200" viewBox="0 0 200 200" fill="none" xmlns="http://www.w3.org/2000/svg">
<rect width="200" height="200" rx="15" fill="white"/>
<path d="M188.955 0H11.0387C4.94632 0 0 4.93644 0 11.0387V188.955C0 195.057 4.94632 200 11.0387 200H106.823V122.548H80.7614V92.3599H106.823V70.0981C106.823 44.2699 122.594 30.1982 145.64 30.1982C156.688 30.1982 166.163 31.0248 168.926 31.3838V58.3811L152.941 58.3877C140.41 58.3877 137.993 64.345 137.993 73.0817V92.35H167.888L163.979 122.535H137.99V199.99H188.951C195.05 199.99 200 195.04 200 188.955V11.0321C199.997 4.93644 195.054 0 188.955 0Z" fill="#4267B2"/>
</svg>
