<svg width="200" height="200" viewBox="0 0 200 200" fill="none" xmlns="http://www.w3.org/2000/svg">
<rect width="200" height="200" rx="15" fill="url(#paint0_linear)"/>
<path d="M100 200C155.228 200 200 155.228 200 100C200 44.7715 155.228 0 100 0C44.7715 0 0 44.7715 0 100C0 155.228 44.7715 200 100 200Z" fill="url(#paint1_linear)"/>
<path d="M78 147C74.112 147 74.773 145.532 73.432 141.83L62 104.207L150 52" fill="#C8DAEA"/>
<path d="M78 147C81 147 82.325 145.628 84 144L100 128.442L80.042 116.407" fill="#A9C9DD"/>
<path d="M80.0393 116.41L128.399 152.139C133.918 155.184 137.9 153.607 139.275 147.016L158.96 54.2527C160.975 46.1727 155.88 42.5067 150.6 44.9037L35.0103 89.4747C27.1203 92.6397 27.1673 97.0417 33.5723 99.0027L63.2353 108.262L131.908 64.9367C135.15 62.9707 138.126 64.0267 135.684 66.1947" fill="url(#paint2_linear)"/>
<defs>
<linearGradient id="paint0_linear" x1="100" y1="0" x2="100" y2="200" gradientUnits="userSpaceOnUse">
<stop stop-color="#37AEE2"/>
<stop offset="1" stop-color="#1E96C8"/>
</linearGradient>
<linearGradient id="paint1_linear" x1="100" y1="-9.89437e-07" x2="100" y2="200" gradientUnits="userSpaceOnUse">
<stop stop-color="#37AEE2"/>
<stop offset="1" stop-color="#1E96C8"/>
</linearGradient>
<linearGradient id="paint2_linear" x1="115.043" y1="92.0093" x2="133.771" y2="134.678" gradientUnits="userSpaceOnUse">
<stop stop-color="#EFF7FC"/>
<stop offset="1" stop-color="white"/>
</linearGradient>
</defs>
</svg>
