<svg width="54" height="38" viewBox="0 0 54 38" fill="none" xmlns="http://www.w3.org/2000/svg">
<path d="M52.8874 5.91611C52.2649 3.60281 50.441 1.77937 48.1282 1.15644C43.9024 0 26.9995 0 26.9995 0C26.9995 0 10.0969 0 5.87121 1.11236C3.60281 1.73487 1.73446 3.60323 1.11195 5.91611C0 10.1414 0 18.9044 0 18.9044C0 18.9044 0 27.7114 1.11195 31.8926C1.73487 34.2055 3.55832 36.0294 5.87162 36.6523C10.1414 37.8087 26.9999 37.8087 26.9999 37.8087C26.9999 37.8087 43.9024 37.8087 48.1282 36.6964C50.4415 36.0739 52.2649 34.25 52.8878 31.9371C53.9998 27.7114 53.9998 18.9489 53.9998 18.9489C53.9998 18.9489 54.0443 10.1414 52.8874 5.91611Z" fill="#FF0000"/>
<path d="M21.6191 27.0007L35.6749 18.9051L21.6191 10.8096V27.0007Z" fill="white"/>
</svg>
