<svg width="200" height="200" viewBox="0 0 200 200" fill="none" xmlns="http://www.w3.org/2000/svg">
<rect width="200" height="200" rx="15" fill="#5181B8"/>
<path fill-rule="evenodd" clip-rule="evenodd" d="M171.535 62.0942C172.585 58.5813 171.535 56 166.539 56H150.02C145.82 56 143.883 58.2299 142.833 60.6888C142.833 60.6888 134.432 81.239 122.531 94.5877C118.681 98.4518 116.931 99.6812 114.831 99.6812C113.781 99.6812 112.261 98.4518 112.261 94.9392V62.0942C112.261 57.8787 111.042 56 107.541 56H81.5822C78.9573 56 77.3787 57.9565 77.3787 59.8108C77.3787 63.8069 83.3288 64.7285 83.9421 75.9698V100.384C83.9421 105.737 82.9789 106.707 80.8787 106.707C75.2785 106.707 61.6561 86.0653 53.5767 62.4454C51.9933 57.8545 50.4052 56 46.1833 56H29.6639C24.944 56 24 58.2299 24 60.6888C24 65.08 29.6005 86.8597 50.0767 115.665C63.7274 135.337 82.9603 146 100.462 146C110.962 146 112.261 143.632 112.261 139.552V124.684C112.261 119.947 113.256 119.002 116.581 119.002C119.031 119.002 123.232 120.231 133.032 129.716C144.233 140.957 146.08 146 152.38 146H168.899C173.619 146 175.979 143.632 174.618 138.958C173.128 134.299 167.78 127.541 160.684 119.529C156.834 114.962 151.059 110.044 149.308 107.585C146.858 104.424 147.558 103.018 149.308 100.208C149.308 100.208 169.435 71.7543 171.535 62.0942Z" fill="white"/>
</svg>
