<svg width="117" height="31" viewBox="0 0 117 31" fill="none" xmlns="http://www.w3.org/2000/svg">
<rect width="117" height="31" fill="white"/>
<rect width="117" height="31" rx="1" fill="white"/>
<rect x="18" y="5" width="53" height="8" rx="3" fill="#EEEEEE" fill-opacity="0.35"/>
<rect x="8" y="19" width="94" height="4" rx="2" fill="#EEEEEE" fill-opacity="0.35"/>
<rect x="8" y="24" width="81" height="4" rx="2" fill="#EEEEEE" fill-opacity="0.35"/>
<circle cx="13" cy="9" r="7.5" fill="#EEEEEE" stroke="white"/>
<rect x="76.8359" y="2.16699" width="37.2452" height="13.833" rx="2.5" fill="#EEEEEE"/>
<rect x="78.082" y="3.03076" width="34.7622" height="12.1039" rx="2" fill="#F2D20B"/>
<path d="M90.4453 11.2422H89.2031V12H88.0312V11.2422H87.2383V10.293H88.0312V9.99609H87.2383V9.04688H88.0312V6.3125H90.2422C90.6693 6.3125 91.0443 6.38932 91.3672 6.54297C91.6901 6.69661 91.9401 6.91667 92.1172 7.20312C92.2969 7.48698 92.3867 7.8112 92.3867 8.17578C92.3867 8.73828 92.1953 9.18229 91.8125 9.50781C91.4323 9.83333 90.9023 9.99609 90.2227 9.99609H89.2031V10.293H90.4453V11.2422ZM89.2031 9.04688H90.2148C90.8711 9.04688 91.1992 8.75911 91.1992 8.18359C91.1992 7.91016 91.1159 7.6901 90.9492 7.52344C90.7826 7.35417 90.5521 7.26823 90.2578 7.26562H89.2031V9.04688ZM96.0859 11.2422H94.8438V12H93.6719V11.2422H92.8789V10.293H93.6719V9.99609H92.8789V9.04688H93.6719V6.3125H95.8828C96.3099 6.3125 96.6849 6.38932 97.0078 6.54297C97.3307 6.69661 97.5807 6.91667 97.7578 7.20312C97.9375 7.48698 98.0273 7.8112 98.0273 8.17578C98.0273 8.73828 97.8359 9.18229 97.4531 9.50781C97.0729 9.83333 96.543 9.99609 95.8633 9.99609H94.8438V10.293H96.0859V11.2422ZM94.8438 9.04688H95.8555C96.5117 9.04688 96.8398 8.75911 96.8398 8.18359C96.8398 7.91016 96.7565 7.6901 96.5898 7.52344C96.4232 7.35417 96.1927 7.26823 95.8984 7.26562H94.8438V9.04688ZM101.727 11.2422H100.484V12H99.3125V11.2422H98.5195V10.293H99.3125V9.99609H98.5195V9.04688H99.3125V6.3125H101.523C101.951 6.3125 102.326 6.38932 102.648 6.54297C102.971 6.69661 103.221 6.91667 103.398 7.20312C103.578 7.48698 103.668 7.8112 103.668 8.17578C103.668 8.73828 103.477 9.18229 103.094 9.50781C102.714 9.83333 102.184 9.99609 101.504 9.99609H100.484V10.293H101.727V11.2422ZM100.484 9.04688H101.496C102.152 9.04688 102.48 8.75911 102.48 8.18359C102.48 7.91016 102.397 7.6901 102.23 7.52344C102.064 7.35417 101.833 7.26823 101.539 7.26562H100.484V9.04688Z" fill="white"/>
</svg>
