<svg width="11" height="10" viewBox="0 0 11 10" fill="none" xmlns="http://www.w3.org/2000/svg">
<path fill-rule="evenodd" clip-rule="evenodd" d="M4.71259 2.11602L1.64652 5.18208L1.29297 5.53563L1.64652 5.88919L5.18206 9.42472L5.53561 9.77828L5.88916 9.42472L9.4247 5.88919L9.77825 5.53563L9.4247 5.18208L6.3183 2.07568C6.2209 2.21382 6.08939 2.32618 5.93602 2.40051L8.71759 5.18208L9.07114 5.53563L8.71759 5.88919L5.88916 8.71762L5.53561 9.07117L5.18206 8.71762L2.35363 5.88919L2.00008 5.53563L2.35363 5.18208L5.11331 2.4224C4.95482 2.35579 4.8171 2.24953 4.71259 2.11602Z" fill="#FEE233"/>
<rect y="5" width="11" height="5" rx="0.7" fill="white"/>
<rect x="4.75" y="0.75" width="1.5" height="1.5" rx="0.75" fill="white"/>
</svg>
