<svg width="10" height="12" viewBox="0 0 10 12" fill="none" xmlns="http://www.w3.org/2000/svg">
<path d="M3.09766 10.9175C3.37935 11.5543 4.01684 12 4.75681 12C5.49678 12 6.13427 11.5543 6.41596 10.9175H3.09766Z" fill="#FEE233"/>
<path d="M4.75532 1.14648C5.24363 1.14648 5.7125 1.23264 6.14758 1.39037V1.33678C6.14758 0.599676 5.54793 0 4.81085 0H4.70006C3.96296 0 3.36328 0.599676 3.36328 1.33678V1.3897C3.79815 1.23243 4.26688 1.14648 4.75532 1.14648Z" fill="#FEE233"/>
<path d="M9.14949 10.213H0.361428C0.19517 10.213 0.0428795 10.1009 0.00829895 9.93821C-0.0259291 9.77723 0.0474574 9.61829 0.196343 9.54947C0.231675 9.52655 0.497613 9.34062 0.763855 8.778C1.25284 7.74482 1.35548 6.28941 1.35548 5.25041C1.35548 3.37572 2.88066 1.85059 4.75532 1.85059C6.62556 1.85059 8.14792 3.36837 8.15512 5.23691C8.1553 5.2414 8.15542 5.2459 8.15542 5.25041C8.15542 6.28941 8.25802 7.74482 8.74701 8.778C9.01329 9.34062 9.27921 9.52661 9.31455 9.54947C9.4634 9.61829 9.53684 9.77717 9.50258 9.93821C9.46802 10.1009 9.31575 10.213 9.14949 10.213ZM9.31851 9.55199H9.31875H9.31851Z" fill="white"/>
</svg>
