<svg width="62" height="49" viewBox="0 0 62 49" fill="none" xmlns="http://www.w3.org/2000/svg">
<rect width="62" height="49" fill="white"/>
<rect width="61.9835" height="6.32191" fill="white"/>
<rect x="2.47656" y="31.7476" width="52.0661" height="3.79315" rx="1.89657" fill="#EEEEEE" fill-opacity="0.35"/>
<rect x="2.47656" y="36.8052" width="47.1074" height="3.79315" rx="1.89657" fill="#EEEEEE" fill-opacity="0.35"/>
<rect x="2.47656" y="41.8633" width="49.5868" height="3.79315" rx="1.89657" fill="#EEEEEE" fill-opacity="0.35"/>
<ellipse cx="6.81931" cy="4.42534" rx="4.33884" ry="4.42534" fill="white"/>
<rect y="6" width="62" height="26" fill="white"/>
<rect x="3" y="9" width="56" height="20" rx="1" fill="#F2D20B"/>
<rect x="10" y="4" width="32" height="4" rx="2" fill="#EEEEEE" fill-opacity="0.35"/>
<circle cx="8" cy="6" r="4.75" fill="#EEEEEE" stroke="white" stroke-width="0.5"/>
<path d="M24.6816 22.0527H23.1289V23H21.6641V22.0527H20.6729V20.8662H21.6641V20.4951H20.6729V19.3086H21.6641V15.8906H24.4277C24.9616 15.8906 25.4303 15.9867 25.834 16.1787C26.2376 16.3708 26.5501 16.6458 26.7715 17.0039C26.9961 17.3587 27.1084 17.764 27.1084 18.2197C27.1084 18.9229 26.8691 19.4779 26.3906 19.8848C25.9154 20.2917 25.2529 20.4951 24.4033 20.4951H23.1289V20.8662H24.6816V22.0527ZM23.1289 19.3086H24.3936C25.2139 19.3086 25.624 18.9489 25.624 18.2295C25.624 17.8877 25.5199 17.6126 25.3115 17.4043C25.1032 17.1927 24.8151 17.0853 24.4473 17.082H23.1289V19.3086ZM31.7324 22.0527H30.1797V23H28.7148V22.0527H27.7236V20.8662H28.7148V20.4951H27.7236V19.3086H28.7148V15.8906H31.4785C32.0124 15.8906 32.4811 15.9867 32.8848 16.1787C33.2884 16.3708 33.6009 16.6458 33.8223 17.0039C34.0469 17.3587 34.1592 17.764 34.1592 18.2197C34.1592 18.9229 33.9199 19.4779 33.4414 19.8848C32.9661 20.2917 32.3037 20.4951 31.4541 20.4951H30.1797V20.8662H31.7324V22.0527ZM30.1797 19.3086H31.4443C32.2646 19.3086 32.6748 18.9489 32.6748 18.2295C32.6748 17.8877 32.5706 17.6126 32.3623 17.4043C32.154 17.1927 31.8659 17.0853 31.498 17.082H30.1797V19.3086ZM38.7832 22.0527H37.2305V23H35.7656V22.0527H34.7744V20.8662H35.7656V20.4951H34.7744V19.3086H35.7656V15.8906H38.5293C39.0632 15.8906 39.5319 15.9867 39.9355 16.1787C40.3392 16.3708 40.6517 16.6458 40.873 17.0039C41.0977 17.3587 41.21 17.764 41.21 18.2197C41.21 18.9229 40.9707 19.4779 40.4922 19.8848C40.0169 20.2917 39.3545 20.4951 38.5049 20.4951H37.2305V20.8662H38.7832V22.0527ZM37.2305 19.3086H38.4951C39.3154 19.3086 39.7256 18.9489 39.7256 18.2295C39.7256 17.8877 39.6214 17.6126 39.4131 17.4043C39.2048 17.1927 38.9167 17.0853 38.5488 17.082H37.2305V19.3086Z" fill="white"/>
</svg>
