<svg width="128" height="127" viewBox="0 0 128 127" fill="none" xmlns="http://www.w3.org/2000/svg">
<path d="M100.572 55.168L113.605 45.699H97.4955C97.0195 45.699 96.5975 45.3925 96.4505 44.9397L91.4725 29.6191L86.4945 44.9397C86.3474 45.3927 85.9255 45.699 85.4494 45.699H69.3398L82.3727 55.168C82.7578 55.4478 82.9191 55.9438 82.7719 56.3966L77.7939 71.7176L90.8263 62.2486C91.2116 61.9688 91.7329 61.9688 92.1182 62.2486L105.151 71.7176L100.173 56.3966C100.026 55.9438 100.187 55.448 100.572 55.168Z" fill="#E6E6F0"/>
<path d="M93.165 103.884C91.4568 103.262 89.5613 104.146 88.9396 105.854C88.3179 107.562 89.2018 109.458 90.9099 110.079C92.6181 110.701 94.5136 109.817 95.1353 108.109C95.7571 106.401 94.8732 104.505 93.165 103.884Z" fill="#E6E6F0"/>
<path d="M43.3344 31.9537C45.6117 32.7825 48.1393 31.6041 48.9682 29.3265C49.7972 27.049 48.6185 24.5216 46.3411 23.6927C44.0638 22.8638 41.5362 24.0422 40.7072 26.3198C39.8783 28.5973 41.057 31.1248 43.3344 31.9537Z" fill="#E6E6F0"/>
<path d="M68.0671 78.719C67.9389 78.444 67.7112 78.247 67.4468 78.1508C67.1827 78.0547 66.8817 78.0592 66.6067 78.1874L38.4374 91.323C37.8872 91.5796 37.6492 92.2334 37.9059 92.7833C38.1625 93.3333 38.8159 93.5711 39.366 93.3148L67.5353 80.1792C68.0854 79.9229 68.3234 79.269 68.0671 78.719Z" fill="#E6E6F0"/>
<path d="M68.4446 64.8247C68.3165 64.5496 68.0888 64.3526 67.8245 64.2564C67.5603 64.1602 67.2593 64.1648 66.9843 64.2932L14.8711 88.5938C14.3209 88.8504 14.0829 89.5042 14.3395 90.0542C14.5962 90.6041 15.2496 90.8419 15.7997 90.5856L67.913 66.2848C68.463 66.0284 68.701 65.3746 68.4446 64.8247Z" fill="#E6E6F0"/>
<path d="M32.2086 68.0072C32.0802 67.7322 31.8527 67.5353 31.5885 67.4391C31.3244 67.343 31.0234 67.3476 30.7484 67.4758L13.8468 75.3571C13.2967 75.6137 13.0587 76.2675 13.3153 76.8175C13.5719 77.3674 14.2254 77.6052 14.7754 77.3489L31.677 69.4675C32.2271 69.2112 32.4651 68.5574 32.2086 68.0072Z" fill="#E6E6F0"/>
<path d="M10.88 64.2357C11.1366 64.7856 11.7901 65.0234 12.3401 64.7671L63.045 41.1231C63.595 40.8667 63.833 40.2129 63.5764 39.6629C63.3199 39.1128 62.6664 38.875 62.1163 39.1315L11.4115 62.7753C10.8614 63.0319 10.6234 63.6857 10.88 64.2357Z" fill="#E6E6F0"/>
<path d="M87.4503 78.7582L59.2809 91.8937C58.7308 92.1503 58.4928 92.8041 58.7494 93.3541C59.006 93.904 59.6597 94.1419 60.2098 93.8856L88.3791 80.75C88.9292 80.4937 89.1672 79.8398 88.9106 79.2897C88.654 78.7397 88.0003 78.502 87.4503 78.7582Z" fill="#E6E6F0"/>
<path d="M34.0202 92.8815C32.8796 92.4663 31.6184 93.0544 31.2032 94.195C30.7881 95.3357 31.3762 96.5968 32.5168 97.012C33.6574 97.4271 34.9186 96.839 35.3337 95.6984C35.7489 94.5578 35.1608 93.2966 34.0202 92.8815Z" fill="#E6E6F0"/>
<path d="M40.4147 62.465C39.2741 62.0498 38.0129 62.6379 37.5978 63.7785C37.1826 64.9191 37.7707 66.1803 38.9113 66.5955C40.0519 67.0106 41.3131 66.4225 41.7283 65.2819C42.1434 64.1413 41.5553 62.8801 40.4147 62.465Z" fill="#E6E6F0"/>
<path d="M68.942 112.609C67.8014 112.193 66.5402 112.781 66.1251 113.922C65.71 115.063 66.2981 116.324 67.4387 116.739C68.5793 117.154 69.8404 116.566 70.2556 115.425C70.6707 114.285 70.0826 113.024 68.942 112.609Z" fill="#E6E6F0"/>
<path d="M98.2428 83.5128C97.1022 83.0977 95.841 83.6858 95.4259 84.8264C95.0107 85.967 95.5988 87.2282 96.7394 87.6433C97.88 88.0585 99.1412 87.4704 99.5564 86.3298C99.9715 85.1892 99.3834 83.928 98.2428 83.5128Z" fill="#E6E6F0"/>
<path d="M28.5944 37.1124C27.4538 36.6973 26.1926 37.2854 25.7774 38.426C25.3623 39.5666 25.9504 40.8278 27.091 41.2429C28.2316 41.6581 29.4928 41.07 29.9079 39.9294C30.3231 38.7888 29.735 37.5276 28.5944 37.1124Z" fill="#E6E6F0"/>
<path d="M68.5905 23.6051C67.4499 23.19 66.1887 23.7781 65.7735 24.9187C65.3584 26.0593 65.9465 27.3205 67.0871 27.7356C68.2277 28.1508 69.4889 27.5627 69.904 26.4221C70.3192 25.2815 69.7311 24.0203 68.5905 23.6051Z" fill="#E6E6F0"/>
<path d="M120.786 47.279C119.645 46.8638 118.384 47.4519 117.969 48.5925C117.554 49.7331 118.142 50.9943 119.282 51.4094C120.423 51.8246 121.684 51.2365 122.099 50.0959C122.514 48.9553 121.926 47.6941 120.786 47.279Z" fill="#E6E6F0"/>
</svg>
