<svg width="61" height="80" viewBox="0 0 61 80" fill="none" xmlns="http://www.w3.org/2000/svg">
<rect x="38.54" y="10.3963" width="18.1012" height="8.82243" transform="rotate(44.666 38.54 10.3963)" fill="#272939"/>
<path d="M58.6547 21.0406L40.4019 2.78771C39.9758 2.3615 39.3943 2.11919 38.7883 2.11919H6.84499C3.07066 2.11919 0 5.18985 0 8.96418V73.155C0 76.9293 3.07066 80 6.84499 80H52.4783C56.2526 80 59.3232 76.9293 59.3232 73.155V22.6542C59.3232 22.032 59.0621 21.4478 58.6547 21.0406ZM41.0699 9.90924L51.5332 20.3725H43.3516C42.0935 20.3725 41.0699 19.3489 41.0699 18.0908V9.90924ZM52.4783 75.4367H6.84499C5.58688 75.4367 4.56333 74.4131 4.56333 73.155V8.96418C4.56333 7.70607 5.58688 6.68251 6.84499 6.68251H36.5066V18.0908C36.5066 21.8652 39.5773 24.9358 43.3516 24.9358H54.7599V73.155C54.7599 74.4131 53.7364 75.4367 52.4783 75.4367Z" fill="#272939"/>
<rect x="2.28015" y="5.46579" width="37.4193" height="70.7316" fill="#272939"/>
<rect x="37.4181" y="22.9585" width="18.1012" height="53.2388" fill="#272939"/>
<rect x="42.5098" y="5.62814" width="18.1012" height="8.82243" transform="rotate(44.666 42.5098 5.62814)" fill="#272939"/>
<path d="M59.978 18.9214L41.7251 0.668527C41.299 0.242313 40.7175 0 40.1115 0H8.16823C4.3939 0 1.32324 3.07066 1.32324 6.84499V71.0358C1.32324 74.8101 4.3939 77.8808 8.16823 77.8808H53.8015C57.5758 77.8808 60.6465 74.8101 60.6465 71.0358V20.535C60.6465 19.9128 60.3853 19.3286 59.978 18.9214ZM42.3932 7.79006L52.8564 18.2533H44.6748C43.4167 18.2533 42.3932 17.2298 42.3932 15.9716V7.79006ZM53.8015 73.3175H8.16823C6.91012 73.3175 5.88657 72.2939 5.88657 71.0358V6.84499C5.88657 5.58688 6.91012 4.56333 8.16823 4.56333H37.8299V15.9716C37.8299 19.746 40.9005 22.8166 44.6748 22.8166H56.0832V71.0358C56.0832 72.2939 55.0596 73.3175 53.8015 73.3175Z" fill="#FEE233"/>
<rect x="3.60364" y="3.34647" width="37.4193" height="70.7316" fill="#FEE233"/>
<rect x="38.7413" y="20.8391" width="18.1012" height="53.2388" fill="#FEE233"/>
<rect x="9.80054" y="46.6226" width="21.1921" height="4.23841" rx="2.11921" fill="#272939"/>
<rect x="9.80054" y="55.6291" width="31.7881" height="4.23841" rx="2.11921" fill="#272939"/>
<rect x="9.80054" y="64.6357" width="42.3841" height="4.23841" rx="2.11921" fill="#272939"/>
</svg>
