<svg width="15" height="15" viewBox="0 0 15 15" fill="none" xmlns="http://www.w3.org/2000/svg">
<path d="M7.86714 4.04385C8.83361 4.04385 9.61709 3.26037 9.61709 2.2939C9.61709 1.32742 8.83361 0.543945 7.86714 0.543945C6.90067 0.543945 6.11719 1.32742 6.11719 2.2939C6.11719 3.26037 6.90067 4.04385 7.86714 4.04385Z" fill="#888888"/>
<path d="M10.4885 8.80033L10.0913 5.70642C10.0466 5.25756 9.67215 4.91895 9.22153 4.91895H8.74205C8.62568 4.91895 8.51455 4.96532 8.43231 5.04669L7.86707 5.61193L7.30184 5.04669C7.21959 4.96532 7.10847 4.91895 6.9921 4.91895H6.51349C6.062 4.91895 5.68751 5.25756 5.64376 5.69505L5.24565 8.80121C5.2299 8.92546 5.2684 9.05145 5.35152 9.14507C5.43464 9.23957 5.55364 9.29382 5.67963 9.29382H6.15212L6.51786 13.7562C6.56161 14.2042 6.93697 14.5437 7.38846 14.5437H8.34656C8.79805 14.5437 9.17253 14.2042 9.21803 13.7483L9.5829 9.29382H10.0545C10.1805 9.29382 10.2995 9.23957 10.3826 9.14507C10.4666 9.05145 10.5051 8.92546 10.4885 8.80033Z" fill="#888888"/>
<path d="M12.2421 4.04385C13.2086 4.04385 13.9921 3.26037 13.9921 2.2939C13.9921 1.32742 13.2086 0.543945 12.2421 0.543945C11.2757 0.543945 10.4922 1.32742 10.4922 2.2939C10.4922 3.26037 11.2757 4.04385 12.2421 4.04385Z" fill="#888888"/>
<path d="M3.49214 0.543945C2.52704 0.543945 1.74219 1.3288 1.74219 2.2939C1.74219 3.25899 2.52704 4.04385 3.49214 4.04385C4.45636 4.04385 5.24209 3.25899 5.24209 2.2939C5.24209 1.3288 4.45636 0.543945 3.49214 0.543945Z" fill="#888888"/>
<path d="M14.8638 8.80033L14.4665 5.7073C14.4219 5.25756 14.0483 4.91895 13.5968 4.91895H13.1173C13.0009 4.91895 12.8898 4.96532 12.8076 5.04669L12.2423 5.61193L11.6771 5.04669C11.5949 4.96532 11.4837 4.91895 11.3682 4.91895H10.8888C10.8345 4.91895 10.7855 4.93819 10.7339 4.94782C10.8468 5.14731 10.9351 5.36343 10.9614 5.6058L11.3577 8.68921C11.4067 9.06458 11.2895 9.44257 11.0375 9.72693C10.9185 9.86343 10.7663 9.95968 10.6035 10.0349L10.894 12.8812C10.9386 13.3301 11.3131 13.6687 11.7646 13.6687H12.7227C13.1742 13.6687 13.5487 13.3292 13.5942 12.8733L13.9582 9.29382H14.4298C14.5558 9.29382 14.6748 9.23957 14.7579 9.14507C14.8419 9.05145 14.8804 8.92546 14.8638 8.80033Z" fill="#888888"/>
<path d="M4.69431 9.72256C4.44582 9.44169 4.33033 9.06458 4.37757 8.69096L4.77569 5.58393C4.79844 5.35118 4.88418 5.14119 4.99356 4.94694C4.94456 4.93819 4.89818 4.91895 4.84656 4.91895H4.36707C4.2507 4.91895 4.13958 4.96532 4.05733 5.04669L3.4921 5.61193L2.92687 5.04669C2.84462 4.96532 2.7335 4.91895 2.618 4.91895H2.13849C1.687 4.91895 1.31251 5.25756 1.26876 5.69505L0.870647 8.80121C0.854897 8.92546 0.893396 9.05145 0.976519 9.14507C1.05964 9.23957 1.17951 9.29382 1.30463 9.29382H1.77712L2.14286 12.8812C2.18661 13.3292 2.56197 13.6687 3.01346 13.6687H3.97156C4.42305 13.6687 4.79753 13.3292 4.84303 12.8733L5.13352 10.034C4.96993 9.95793 4.81681 9.8608 4.69431 9.72256Z" fill="#888888"/>
</svg>
