<svg width="12" height="12" viewBox="0 0 12 12" fill="none" xmlns="http://www.w3.org/2000/svg">
<path fill-rule="evenodd" clip-rule="evenodd" d="M5.54457 6.02434C5.5503 5.89602 5.51038 5.76972 5.4316 5.66694L2.02759 1.22905C1.98327 1.16953 1.92729 1.11922 1.86291 1.08104C1.79854 1.04286 1.72704 1.01757 1.65258 1.00664C1.57811 0.995715 1.50217 0.999366 1.42917 1.01738C1.35616 1.0354 1.28755 1.06743 1.22731 1.11161C1.16707 1.15578 1.11642 1.21121 1.07829 1.2747C1.04015 1.33818 1.0153 1.40844 1.00518 1.48139C0.995064 1.55435 0.999875 1.62854 1.01934 1.69967C1.0388 1.77079 1.07252 1.83742 1.11855 1.89568L4.26691 6.00025L1.11855 10.1048C1.07251 10.1631 1.03878 10.2297 1.01932 10.3008C0.99985 10.372 0.995035 10.4462 1.00515 10.5191C1.01527 10.5921 1.04012 10.6623 1.07825 10.7258C1.11638 10.7893 1.16704 10.8448 1.22728 10.8889C1.28752 10.9331 1.35614 10.9651 1.42915 10.9832C1.50216 11.0012 1.57811 11.0048 1.65257 10.9939C1.72704 10.983 1.79854 10.9577 1.86292 10.9195C1.9273 10.8813 1.98327 10.831 2.02759 10.7714L5.4316 6.33356C5.50026 6.24397 5.53964 6.13619 5.54457 6.02434V6.02434Z" fill="white"/>
<path d="M5.55062 5.57565L5.55066 5.57569C5.65069 5.70621 5.70172 5.86709 5.69442 6.03095C5.69442 6.03097 5.69442 6.031 5.69442 6.03103L5.54457 6.02434C5.53964 6.13619 5.50026 6.24397 5.4316 6.33356L5.55062 5.57565ZM5.55062 5.57565L2.14722 1.13856M5.55062 5.57565L2.14722 1.13856M2.14722 1.13856C2.09106 1.06339 2.02039 1.00004 1.93943 0.952025C1.85815 0.903819 1.76804 0.871982 1.67436 0.858233C1.58067 0.844484 1.48513 0.849072 1.39322 0.871755C1.30132 0.894439 1.21476 0.934801 1.13861 0.990644C1.06245 1.04649 0.998183 1.11674 0.9497 1.19746C0.901213 1.27818 0.869521 1.36769 0.856607 1.46078C0.843692 1.55388 0.849838 1.64856 0.874655 1.73926C0.899372 1.82958 0.942077 1.91403 1.00014 1.98777L4.07787 6.00025L1.00016 10.0127C0.942079 10.0865 0.899362 10.1709 0.874638 10.2612C0.849814 10.3519 0.843663 10.4466 0.856574 10.5397C0.869485 10.6328 0.901175 10.7223 0.949664 10.8031C0.998147 10.8838 1.06242 10.954 1.13858 11.0099C1.21473 11.0657 1.3013 11.1061 1.39321 11.1288C1.48513 11.1515 1.58068 11.156 1.67436 11.1423C1.76804 11.1285 1.85815 11.0967 1.93944 11.0485C2.02041 11.0005 2.09106 10.9371 2.14722 10.8619L2.14722 1.13856Z" stroke="white" stroke-opacity="0.8" stroke-width="0.3"/>
<path fill-rule="evenodd" clip-rule="evenodd" d="M10.9977 6.02399C11.0034 5.89567 10.9635 5.76938 10.8847 5.6666L7.48065 1.22871C7.43633 1.16921 7.38035 1.11892 7.31597 1.08075C7.25159 1.04259 7.1801 1.01731 7.10565 1.00639C7.0312 0.99547 6.95527 0.99913 6.88227 1.01715C6.80927 1.03517 6.74067 1.06719 6.68044 1.11136C6.62021 1.15552 6.56956 1.21096 6.53143 1.27443C6.4933 1.3379 6.46845 1.40815 6.45832 1.48109C6.44819 1.55403 6.45299 1.62822 6.47244 1.69933C6.49188 1.77044 6.52559 1.83707 6.5716 1.89534L9.72001 5.99991L6.5716 10.1045C6.52558 10.1627 6.49187 10.2294 6.47242 10.3005C6.45296 10.3716 6.44816 10.4458 6.45829 10.5187C6.46841 10.5917 6.49326 10.6619 6.53139 10.7254C6.56953 10.7889 6.62018 10.8443 6.68041 10.8885C6.74064 10.9327 6.80925 10.9647 6.88225 10.9827C6.95525 11.0007 7.03119 11.0044 7.10564 10.9935C7.1801 10.9825 7.2516 10.9573 7.31597 10.9191C7.38035 10.8809 7.43633 10.8306 7.48065 10.7711L10.8847 6.33323C10.9534 6.24363 10.9928 6.13585 10.9977 6.02399V6.02399Z" fill="white"/>
<path d="M11.0037 5.5753L11.0038 5.57535C11.1038 5.70587 11.1548 5.86674 11.1475 6.0306L11.0037 5.5753ZM11.0037 5.5753L7.60027 1.1382M11.0037 5.5753L7.60027 1.1382M7.60027 1.1382C7.5441 1.06304 7.47343 0.999721 7.39247 0.951724C7.31119 0.903541 7.22109 0.871714 7.12741 0.857976C7.03373 0.844238 6.9382 0.84884 6.84632 0.871522C6.75443 0.894206 6.66788 0.934557 6.59174 0.990396C6.51559 1.04624 6.45133 1.11649 6.40285 1.19718C6.35436 1.27789 6.32267 1.36738 6.30974 1.46046C6.29682 1.55355 6.30295 1.64821 6.32775 1.7389C6.35245 1.82922 6.39513 1.91366 6.45318 1.98742L9.53096 5.99991L6.45388 10.0115C6.45365 10.0118 6.45342 10.0121 6.4532 10.0124C6.39514 10.0861 6.35244 10.1706 6.32773 10.2609C6.30293 10.3516 6.29679 10.4463 6.30971 10.5394C6.32263 10.6324 6.35432 10.7219 6.40281 10.8027C6.45129 10.8834 6.51556 10.9536 6.59171 11.0095C6.66786 11.0653 6.75442 11.1057 6.84631 11.1283C6.93819 11.151 7.03373 11.1556 7.12742 11.1419C7.2211 11.1281 7.3112 11.0963 7.39248 11.0481C7.47343 11.0001 7.54409 10.9368 7.60026 10.8616L11.0037 6.42452L11.0038 6.42447C11.091 6.31072 11.1412 6.17347 11.1475 6.03069L7.60027 1.1382Z" stroke="white" stroke-opacity="0.8" stroke-width="0.3"/>
<path fill-rule="evenodd" clip-rule="evenodd" d="M8.27113 6.02387C8.27686 5.89555 8.23694 5.76926 8.15816 5.66647L4.75415 1.22858C4.70983 1.16906 4.65386 1.11874 4.58948 1.08056C4.5251 1.04238 4.4536 1.01709 4.37914 1.00616C4.30467 0.995226 4.22873 0.998879 4.15572 1.0169C4.08272 1.03492 4.0141 1.06694 3.95386 1.11112C3.89362 1.15529 3.84296 1.21073 3.80483 1.27422C3.7667 1.3377 3.74185 1.40796 3.73173 1.48092C3.72161 1.55388 3.72642 1.62807 3.74589 1.69919C3.76535 1.77031 3.79908 1.83695 3.84511 1.89521L6.99348 5.99978L3.84511 10.1044C3.79908 10.1626 3.76535 10.2293 3.74588 10.3004C3.72641 10.3715 3.7216 10.4457 3.73171 10.5187C3.74183 10.5916 3.76668 10.6619 3.80481 10.7254C3.84295 10.7888 3.89361 10.8443 3.95385 10.8885C4.01409 10.9326 4.0827 10.9647 4.15571 10.9827C4.22873 11.0007 4.30467 11.0043 4.37914 10.9934C4.4536 10.9825 4.5251 10.9572 4.58948 10.919C4.65386 10.8808 4.70983 10.8305 4.75415 10.771L8.15816 6.33309C8.22682 6.2435 8.2662 6.13572 8.27113 6.02387V6.02387Z" fill="white"/>
<path d="M8.27718 5.57518L8.27722 5.57522C8.37725 5.70574 8.42828 5.86662 8.42099 6.03048C8.42099 6.03051 8.42098 6.03053 8.42098 6.03056L8.27113 6.02387C8.2662 6.13572 8.22682 6.2435 8.15816 6.33309L8.27718 5.57518ZM8.27718 5.57518L4.87378 1.13809C4.81763 1.06292 4.74696 0.999568 4.666 0.951547C4.58472 0.903337 4.49461 0.871497 4.40092 0.857746C4.30723 0.843994 4.21168 0.848586 4.11978 0.871267C4.02787 0.89395 3.94131 0.934311 3.86516 0.990157C3.789 1.04601 3.72473 1.11626 3.67624 1.19698C3.62776 1.2777 3.59607 1.36721 3.58315 1.46031C3.57024 1.55342 3.57639 1.64809 3.60121 1.73879C3.62593 1.82911 3.66864 1.91356 3.72671 1.98731L6.80443 5.99978L3.72669 10.0123C3.66863 10.086 3.62592 10.1705 3.6012 10.2608C3.57638 10.3515 3.57023 10.4461 3.58314 10.5393C3.59605 10.6324 3.62774 10.7219 3.67623 10.8026C3.72471 10.8833 3.78898 10.9536 3.86514 11.0094C3.9413 11.0653 4.02787 11.1056 4.11977 11.1283C4.21169 11.151 4.30724 11.1556 4.40092 11.1418C4.4946 11.1281 4.58471 11.0962 4.666 11.048C4.74697 11 4.81762 10.9366 4.87378 10.8615L8.27718 5.57518Z" stroke="white" stroke-opacity="0.8" stroke-width="0.3"/>
</svg>
