<svg width="10" height="9" viewBox="0 0 10 9" fill="none" xmlns="http://www.w3.org/2000/svg">
<path d="M7.34375 0C6.80111 0 6.30361 0.171953 5.8651 0.511094C5.44469 0.83623 5.16479 1.25035 5 1.55148C4.83521 1.25033 4.55531 0.83623 4.1349 0.511094C3.69639 0.171953 3.19889 0 2.65625 0C1.14195 0 0 1.23861 0 2.88113C0 4.65563 1.42467 5.86971 3.58143 7.70766C3.94768 8.01978 4.36281 8.37357 4.7943 8.7509C4.85117 8.8007 4.92422 8.82812 5 8.82812C5.07578 8.82812 5.14883 8.8007 5.2057 8.75092C5.63723 8.37354 6.05234 8.01977 6.41881 7.70746C8.57533 5.86971 10 4.65563 10 2.88113C10 1.23861 8.85805 0 7.34375 0Z" fill="#DDDDF7"/>
</svg>
