<svg width="15" height="18" viewBox="0 0 15 18" fill="none" xmlns="http://www.w3.org/2000/svg">
<path d="M12.9422 5.61453H13.0122L13.9922 4.63452L13.0122 3.65452L11.9622 4.70451C10.9651 4.02165 9.80679 3.61143 8.60218 3.5145V2.04451H10.0022V0.644531H5.80219V2.04454H7.20217V3.51454C5.99755 3.61147 4.83924 4.02169 3.84216 4.70455L2.79216 3.65455L1.81219 4.63452L2.7922 5.61453C0.129494 8.41737 0.243124 12.8481 3.04597 15.5108C5.84881 18.1735 10.2795 18.0599 12.9422 15.257C15.5088 12.5553 15.5088 8.31628 12.9422 5.61453ZM7.90219 16.0445C4.80938 16.0445 2.30217 13.5373 2.30217 10.4445C2.30217 7.35169 4.80938 4.84452 7.90219 4.84452C10.995 4.84452 13.5022 7.35172 13.5022 10.4445C13.5022 13.5373 10.995 16.0445 7.90219 16.0445Z" fill="#888888"/>
<path d="M7.9039 5.54443C5.19768 5.54443 3.00391 7.73824 3.00391 10.4444C3.00391 13.1506 5.19768 15.3444 7.9039 15.3444C10.6101 15.3444 12.8039 13.1506 12.8039 10.4445C12.8039 7.73828 10.6101 5.54443 7.9039 5.54443ZM8.5339 11.0044C8.20528 11.3331 7.6725 11.3331 7.34389 11.0044C7.01527 10.6758 7.01527 10.143 7.34389 9.81442L10.7039 7.64443L8.5339 11.0044Z" fill="#888888"/>
</svg>
